<svg width="32" height="64">
  <g>
	<!-- R-Track -->
    <path stroke="rgb(0,0,0)" fill="rgb(0,0,0)" d="M 5,0 L 5,12 L 26,12 L 26,0 z " />
	<path stroke="rgb(0,0,0)" fill="rgb(0,0,0)" d="M 5,18 L 5,44 L 26,44 L 26,18 z " />
	<path stroke="rgb(0,0,0)" fill="rgb(0,0,0)" d="M 5,50 L 5,63 L 26,63 L 26,50 z " />
    <!-- R-Grey -->
    <path stroke="rgb(192,192,192)" fill="rgb(192,192,192)" d="M 7,0 L 7,12 L 24,12 L 24,0 z " />
	<path stroke="rgb(192,192,192)" fill="rgb(192,192,192)" d="M 7,18 L 7,44 L 24,44 L 24,18 z " />
	<path stroke="rgb(192,192,192)" fill="rgb(192,192,192)" d="M 7,50 L 7,63 L 24,63 L 24,50 z " />
    <!-- Track -->
    <path stroke-width="1" stroke="rgb(0,0,0)" fill="none" d="M 0,15 L 2,13 L 29,13 L 31,15 L 31,16 L 29,18 L 2,18 L 0,16 z " />
	<path stroke-width="1" stroke="rgb(0,0,0)" fill="none" d="M 0,47 L 2,45 L 29,45 L 31,47 L 31,48 L 29,50 L 2,50 L 0,48 z " />
	<!-- Ausleuchtung grau -->
    <!--path stroke="rgb(192,192,192)" fill="rgb(192,192,192)" d="M 8,14 L 23,14 L 23,17 L 8,17 z " /-->
	<!--path stroke="rgb(192,192,192)" fill="rgb(192,192,192)" d="M 8,46 L 23,46 L 23,49 L 8,49 z " /-->
    <!-- gate -->
	<path stroke-width="1" stroke="rgb(0,0,0)" fill="none" d="M 2,4 L 2,8 L 1,8 L 1,4 z" />
	<path stroke-width="1" stroke="rgb(0,255,0)" fill="none" d="M 2,8 L 6,30 L 7,30 L 3,8 z" />
	<path stroke-width="1" stroke="rgb(0,0,0)" fill="none" d="M 29,60 L 29,56 L 30,56 L 30,60 z" />
	<path stroke-width="1" stroke="rgb(0,255,0)" fill="none" d="M 25,34 L 29,56 L 28,56 L 24,34 z" />
  </g>
</svg>


