<svg width="32" height="32">
  <g>
    <!-- Track -->
    <path stroke="rgb(0,0,0)" fill="rgb(0,0,0)" d="M 0,5 L 31,5 L 31,26 L 0,26 z " />
    <!-- Grey -->
    <path stroke="rgb(192,192,192)" fill="rgb(192,192,192)" d="M 0,7 L 31,7 L 31,24 L 0,24 z " />

    <!-- Sensor off -->
    <path stroke="rgb(0,0,0)" fill="rgb(0,255,0)" d="M 14,11 L 17,11 L 20,14 L 20,17 L 17,20 L 14,20 L 11,17 L 11,14 z " />

    <!-- Sensor on -->
    <!-- Sensor innen 1 -->
    <path stroke="rgb(255,64,0)" fill="rgb(255,0,0)" d="M 13,11 L 18,11 L 20,13 L 20,18 L 18,20 L 13,20 L 11,18 L 11,13 z " /> 
    <!-- Sensor innen 2 -->
    <path stroke="rgb(255,128,0)" fill="rgb(255,128,0)" d="M 14,13 L 17,13 L 18,14 L 18,17 L 17,18 L 14,18 L 13,17 L 13,14 z " /> 
    <!-- Sensor reflex gelb -->
    <path stroke="rgb(255,255,0)" fill="rgb(255,255,0)" d="M 14,16 L 14,15 L 15,14 L 15,15 L 14,16 z " /> 
    <!-- Sensor reflex weiss -->
    <path stroke="rgb(255,255,255)" fill="rgb(255,255,255)" d="M 16,14 L 16,15 L 15,16 z " /> 

  </g>
</svg>
