<?xml version="1.0" encoding="utf-8"?>
<svg width="32" height="32">
  <g>
    <!-- Track -->
    <path stroke="rgb(0,0,0)" fill="rgb(0,0,0)" d="M 0,12 L 31,12 L 31,19 L 0,19 z " />
    <!--yellow-->
    <path stroke="rgb(255,255,0)" fill="rgb(255,255,0)" d="M 8,14 L 23,14 L 23,17 L 8,17 z " />
    <!-- signal -->
    <path stroke="rgb(0,0,0)" fill="rgb(0,0,0)" d="M 19,2 L 26,2 L 26,5 L 28,5 L 28,2 L 30,2 L 30,9 L 28,9 L 28,6 L 26,6 L 26,9 L 22,9 L 19,6 z " />
    <!-- Green-->
    <path stroke="rgb(0,0,0)" fill="rgb(255,255,0)" d="M 20,2 L 21,2 L 22,3 L 22,4 L 21,5 L 20,5 L 19,4 L 19,3 z "></path>
    <!-- Pivot-->
    <path stroke="rgb(0,0,0)" fill="rgb(90,90,90)" d="M 24,2 L 25,2 L 26,3 L 26,4 L 25,5 L 24,5 L 23,4 L 23,3 z "></path>
    <!-- Lunar-->
    <path stroke="rgb(0,0,0)" fill="rgb(90,90,90)" d="M 21,5 L 22,5 L 23,6 L 23,7 L 22,8 L 21,8 L 20,7 L 20,6 z "></path>
    <!--Red-->
    <path stroke="rgb(0,0,0)" fill="rgb(255,0,0)" d="M 24,6 L 25,6 L 26,7 L 26,8 L 25,9 L 24,9 L 23,8 L 23,7 z "></path>
  </g>
  <g>
    <!-- Track -->
    <path stroke="rgb(0,0,0)" fill="rgb(0,0,0)" d="M 0,12 L 31,12 L 31,19 L 0,19 z " />
    <!--yellow-->
    <path stroke="rgb(255,255,0)" fill="rgb(255,255,0)" d="M 8,14 L 23,14 L 23,17 L 8,17 z " />
    <!-- signal -->
    <path stroke="rgb(0,0,0)" fill="rgb(0,0,0)" d="M 19,2 L 26,2 L 26,5 L 28,5 L 28,2 L 30,2 L 30,9 L 28,9 L 28,6 L 26,6 L 26,9 L 22,9 L 19,6 z " />
    <!-- Green-->
    <path stroke="rgb(0,0,0)" fill="rgb(90,90,90)" d="M 20,2 L 21,2 L 22,3 L 22,4 L 21,5 L 20,5 L 19,4 L 19,3 z "></path>
    <!-- Pivot-->
    <path stroke="rgb(0,0,0)" fill="rgb(90,90,90)" d="M 24,2 L 25,2 L 26,3 L 26,4 L 25,5 L 24,5 L 23,4 L 23,3 z "></path>
    <!-- Lunar-->
    <path stroke="rgb(0,0,0)" fill="rgb(90,90,90)" d="M 21,5 L 22,5 L 23,6 L 23,7 L 22,8 L 21,8 L 20,7 L 20,6 z "></path>
    <!--Red-->
    <path stroke="rgb(0,0,0)" fill="rgb(90,90,90)" d="M 24,6 L 25,6 L 26,7 L 26,8 L 25,9 L 24,9 L 23,8 L 23,7 z "></path>
  </g>
</svg>