<svg width="32" height="32">
  <g>
    <!-- Track -->
    <path stroke="black" fill="rgb(255,0,0)" d="M 0,16 L 0,20 L 3,23 L 7,19 L 4,16  z " />
    <path stroke="black" fill="rgb(255,0,0)" d="M 8,28 L 11,31 L 15,31 L 15,27 L 12,24  z " />
    <path stroke="black" fill="rgb(255,255,0)" d="M 3,23 L 8,28 L 12,24 L 7,19  z " />
    <!-- Sensor innen -->
    <path stroke="rgb(255,64,0)" fill="rgb(255,0,0)" d="M 13,11 L 18,11 L 20,13 L 20,18 L 18,20 L 13,20 L 11,18 L 11,13 z " /> 
    <path stroke="rgb(255,128,0)" fill="rgb(255,128,0)" d="M 14,13 L 17,13 L 18,14 L 18,17 L 17,18 L 14,18 L 13,17 L 13,14 z " /> 
    <path stroke="rgb(255,255,0)" fill="rgb(255,255,0)" d="M 14,16 L 14,15 L 15,14 L 15,15 L 14,16 z " /> 
    <path stroke="rgb(255,255,255)" fill="rgb(255,255,255)" d="M 16,14 L 16,15 L 15,16 z " /> 
  </g>
</svg>


