<?xml version="1.0" encoding="UTF-8" standalone="no"?>
<svg
      width="64"
   height="32">
      <g>
<!-- linke gerade -->    
<path
       stroke="black"
       fill="rgb(222, 184, 135)"
       d="M 0,15 L 2,13 L 8,13 L 8,18 L 2,18 L 0,16 z "
       id="path2847" />
    <path
       stroke="black"
       fill="rgb(222, 184, 135)"
       d="M 23,13 L 29,13 L 31,15 L 31,16 L 29,18 L 23,18 z "
       id="path2849"
       style="fill:#0000ff;fill-opacity:1" />
    <path
       stroke="black"
       fill="rgb(255, 200, 160)"
       d="M 8,13 L 23,13 L 23,18 L 8,18 z "
       id="path2851"
       style="fill:#00ffff;fill-opacity:1" />
<!-- rechte gerade -->    <path
       stroke="black"
       fill="rgb(222, 184, 135)"
       d="M 32,15 L 34,13 L 40,13 L 40,18 L 34,18 L 32,16 z "
       id="path2853"
       style="fill:#0000ff;fill-opacity:1" />
    <path
       stroke="black"
       fill="rgb(222, 184, 135)"
       d="M 55,13 L 61,13 L 63,15 L 63,16 L 61,18 L 55,18 z "
       id="path2855" />
    <path
       stroke="black"
       fill="rgb(255, 200, 160)"
       d="M 40,13 L 55,13 L 55,18 L 40,18 z "
       id="path2857"
       style="fill:#14ffff;fill-opacity:1" />
<!-- Abzweig oben links -->    <path
       d="M 0,0 L 0,4 L 3,7 L 7,3 L 4,0 L 0,0 z "
       id="path2859"
       style="fill:#0000ff;stroke:#000000" />
    <path
       d="M 8,12 L 11,15 L 15,15 L 15,11 L 12,8 L 8,12 z "
       id="path2861"
       style="fill:#0000ff;stroke:#000000" />
    <path
       d="M 3,7 L 8,12 L 12,8 L 7,3 L 3,7 z "
       id="path2863"
       style="fill:#00ffff;stroke:#000000" />
<!-- Abzweig unten rechts -->    <path
       d="M 48,16 L 52,16 L 55,19 L 51,23 L 48,20 L 48,16 z "
       id="path2865"
       style="fill:#0000ff;stroke:#000000" />
    <path
       d="M 56,28 L 59,31 L 63,31 L 63,27 L 60,24 L 56,28 z "
       id="path2867"
       style="fill:#0000ff;stroke:#000000" />
    <path
       d="M 51,23 L 56,28 L 60,24 L 55,19 L 51,23 z "
       id="path2869"
       style="fill:#14ffff;stroke:#000000" />
  </g>
</svg>
