<svg width="64" height="32">
  <g>
    <!-- Mast -->
    <path stroke="rgb(0,0,0)" fill="rgb(0,0,0)" d="M 13,25 L 15,23 L 15,28 L 13,26 z " />
    <path stroke="rgb(0,0,0)" fill="rgb(128,128,128)" d="M 20,23 L 29,23 L 29,28 L 20,28 z " />
    <path stroke="rgb(0,0,0)" fill="rgb(255,0,0)" d="M 29,23 L 38,23 L 38,28 L 29,28 z " />  
    <path stroke="rgb(0,0,0)" fill="rgb(255,255,255)" d="M 38,23 L 47,23 L 47,28 L 38,28 z " />   
    <path stroke="rgb(0,0,0)" fill="rgb(128,128,128)" d="M 47,23 L 63,23 L 63,28 L 47,28 z " />
    <!-- Lichterplatte oben -->
    <path stroke="rgb(0,0,0)" fill="rgb(0,0,0)" d="M 22,15 L 25,15 L 30,19 L 30,22 L 29,23 L 26,23 L 21,19 L 21,16 L 22,15 z " />
    <!-- Lichtplatte unten -->
    <path stroke="rgb(0,0,0)" fill="rgb(0,0,0)" d="M 53,15 L 56,15 L 61,19 L 61,22 L 60,23 L 57,23 L 52,19 L 52,16 L 53,15 z " />
    <!-- Lichter oben -->
    <path stroke="rgb(255,0,0)" fill="rgb(255,0,0)" d="M 23,16 L 24,16 L 25,17 L 25,18 L 24,19 L 23,19 L 22,18 L 22,17 z " />
    <path stroke="rgb(0,80,0)" fill="rgb(0,80,0)" d="M 27,19 L 28,19 L 29,20 L 29,21 L 28,22 L 27,22 L 26,21 L 26,20 z " />
    <!-- Lichter unten -->    
    <path stroke="rgb(128,128,128)" fill="rgb(128,128,128)" d="M 54,16 L 55,16 L 56,17 L 56,18 L 55,19 L 54,19 L 53,18 L 53,17 L 54,16 z " />
    <path stroke="rgb(100,100,0)" fill="rgb(100,100,0)" d="M 58,19 L 59,19 L 60,20 L 60,21 L 59,22 L 58,22 L 57,21 L 57,20 z " />
    <!-- Fluegel oben -->
    <path stroke="rgb(255,0,0)" fill="rgb(255,255,255)" d="M 16,30 L 20,30 L 20,9 L 16,9 z " />
    <path stroke="rgb(255,0,0)" fill="rgb(255,0,0)" d="M 16,1 L 20,1 L 22,3 L 22,7 L 20,9 L 16,9 L 14,7 L 14,3 z " />
    <path stroke="rgb(255,255,255)" fill="rgb(255,255,255)"  d="M 17,2 L 19,2 L 21,4 L 21,6 L 19,8 L 17,8 L 15,6 L 15,4 z " />
    <!-- Fluegel unten -->
    <path stroke="rgb(255,0,0)" fill="rgb(255,255,255)" d="M 33,23 L 54,23 L 54,27 L 33,27 z " />
    <path stroke="rgb(255,0,0)" fill="rgb(255,0,0)" d="M 27,21 L 31,21 L 33,23 L 33,27 L 31,29 L 27,29 L 25,27 L 27,21 z " />
    <path stroke="rgb(255,255,255)" fill="rgb(255,255,255)"  d="M 28,22 L 30,22 L 32,24 L 32,26 L 30,28 L 28,28 L 26,26 L 26,24 z " />
  </g>
</svg>