<svg width="64" height="32">
  <g>
    <!-- Mast -->
    <path stroke="black" fill="rgb(128,128,128)" d="M 17,14 L 62,14 L 62,18 L 17,18 z " />
    <!-- Scheibe -->
    <path stroke="black" fill="rgb(255,255,255)" d="M 13,5 L 19,5 L 20,6 L 21,6 L 26,11 L 26,12 L 27,13 L 27,19 L 26,20 L 26,21 L 21,26 L 20,26 L 19,27 L 13,27 L 12,26 L 11,26 L 6,21 L 6,20 L 5,19 L 5,13 L 6,12 L 6,11 L 11,6 L 12,6 z " />
    <path stroke="black" fill="rgb(255,168,0)" d="M 14,8 L 18,8 L 19,9 L 20,9 L 23,12 L 23,13 L 24,14 L 24,18 L 23,19 L 23,20 L 20,23 L 19,23 L 18,24 L 14,24 L 13,23 L 12,23 L 9,20 L 9,19 L 8,18 L 8,14 L 9,13 L 9,12 L 12,9 L 13,9  z " />
    <!-- Lichterplatte rechts gruen-->
    <path stroke="black" fill="black" d="M 27,11 L 32,7 L 35,7 L 36,8 L 36,11 L 31,15 L 28,15 L 27,14 z " />
    <!-- Lichterplatte links gelb -->    
    <path stroke="black" fill="black" d="M 45,20 L 53,20 L 54,21 L 54,24 L 53,25 L 45,25 L 44,24 L 44,21 z " />
    <path stroke="black" fill="black" d="M 48,18 L 50,18 L 50,21 L 48,21 z " />
    <!-- Licht rechts gruen -->    
    <path stroke="rgb(0,255,0)" fill="rgb(0,255,0)" d="M 33,8 L 34,8 L 35,9 L 35,10 L 34,11 L 33,11 L 32,10 L 32,9 z " />
    <!-- Licht links dunkelgruen -->  
    <path stroke="rgb(0,80,0)" fill="rgb(0,80,0)" d="M 51,21 L 52,21 L 53,22 L 53,23 L 52,24 L 51,24 L 50,23 L 50,22 z " />
    <!-- Licht rechts dunkelgelb -->  
    <path stroke="rgb(100,100,0)" fill="rgb(100,100,0)" d="M 29,11 L 30,11 L 31,12 L 31,13 L 30,14 L 29,14 L 28,13 L 28,12 z " />
    <!-- Licht links gelb --> 
    <path stroke="rgb(255,255,0)" fill="rgb(255,255,0)" d="M 47,21 L 48,21 L 49,22 L 49,23 L 48,24 L 47,24 L 46,23 L 46,22 z " />
    <!-- Fluegel schraeg --> 
    <path stroke="rgb(0,0,0)" fill="rgb(255,255,255)" d="M 31,21 L 46,6 L 52,6 L 52,12 L 37,27 z " />
    <path stroke="rgb(0,0,0)" fill="rgb(255,168,0)" d="M 34,21 L 47,8 L 50,8 L 50,11 L 37,25 z " />
  </g>
</svg>