<svg width="32" height="32">
  <g>
    <!-- Mast -->
    <path stroke="black" fill="rgb(80,80,80)" d="M 25,12 L 30,12 L 30,18 L 25,18 z " />
    <!-- Signal Hintergrund -->
    <path stroke="black" fill="rgb(0,0,0)" d="M 5,5 L 25,5 L 25,25 L 5,25 z " />
    <!-- Weisser Kreis -->
    <path stroke="rgb(255,255,255)" fill="rgb(255,255,255)" d="M 13,8 L 17,8 L 18,9 L 19,9 L 21,11 L 21,12 L 22,13 L 22,17 L 21,18 L 21,19 L 19,21 L 18,21 L 17,22 L 13,22 L 12,21 L 11,21 L 9,19 L 9,18 L 8,17 L 8,13 L 9,12 L 9,11 L 11,9 L 12,9 z " />
    <!-- Signal Balken -->
    <path stroke="black" fill="rgb(0,0,0)" d="M 13,7 L 17,7 L 17,23 L 13,23 z " />
  </g>
</svg>