<?xml version="1.0" encoding="utf-8"?>
<svg width="32" height="32">
  <g>
    <!-- Track -->
    <path stroke="rgb(0,0,0)" fill="rgb(0,0,0)" d="M 0,12 L 2,12 L 3,13 L 10,13 L 11,12 L 31,12 L 31,19 L 0,19 z " />
    <!--red-->
    <path stroke="rgb(255,0,0)" fill="rgb(255,0,0)" d="M 8,14 L 23,14 L 23,17 L 8,17 z " />
    <!-- signal -->
    <path stroke="rgb(0,0,0)" fill="rgb(0,0,0)" d="M 1,3 L 4,0 L 9,0 L 12,3 L 12,5 L 28,5 L 28,2 L 30,2 L 30,9 L 28,9 L 28,6 L 12,6 L 12,8 L 9,11 L 4,11 L 1,8 z " />
    <!-- Top Green Lamp -->
    <path stroke="rgb(0,0,0)" fill="rgb(90,90,90)" d="M 2,4 L 3,4 L 4,5 L 4,6 L 3,7 L 2,7 L 1,6 L 1,5 z " />
    <!-- Bottom Green Lamp -->
    <path stroke="rgb(0,0,0)" fill="rgb(90,90,90)" d="M 10,4 L 11,4 L 12,5 L 12,6 L 11,7 L 10,7 L 9,6 L 9,5 z "></path>
    <!-- Centre Lamp -->
    <path stroke="rgb(0,0,0)" fill="rgb(0,0,0)" d="M 6,4 L 7,4 L 8,5 L 8,6 L 7,7 L 6,7 L 5,6 L 5,5 z " />
    <!--Left Red Lamp -->
    <path stroke="rgb(0,0,0)" fill="rgb(90,90,90)" d="M 6,8 L 7,8 L 8,9 L 8,10 L 7,11 L 6,11 L 5,10 L 5,9 z " />
    <!-- Right Red Lamp -->
    <path stroke="rgb(0,0,0)" fill="rgb(90,90,90)" d="M 6,0 L 7,0 L 8,1 L 8,2 L 7,3 L 6,3 L 5,2 L 5,1 z "></path>
    <!-- Right Yellow Lamp -->
    <path stroke="rgb(0,0,0)" fill="rgb(255,255,0)" d="M 3,1 L 4,1 L 5,2 L 5,3 L 4,4 L 3,4 L 2,3 L 2,2 z "></path>
    <!-- Left Yellow Lamp -->
    <path stroke="rgb(0,0,0)" fill="rgb(255,255,0)" d="M 9,7 L 10,7 L 11,8 L 11,9 L 10,10 L 9,10 L 8,9 L 8,8 z " />
    <!-- Right Lunar Lamp -->
    <path stroke="rgb(0,0,0)" fill="rgb(0,0,0)" d="M 9,1 L 10,1 L 11,2 L 11,3 L 10,4 L 9,4 L 8,3 L 8,2 z " />
    <!-- Left Lunar Lamp -->
    <path stroke="rgb(0,0,0)" fill="rgb(0,0,0)" d="M 3,7 L 4,7 L 5,8 L 5,9 L 4,10 L 3,10 L 2,9 L 2,8 z "></path>
  </g>
  <g>
    <!-- Track -->
    <path stroke="rgb(0,0,0)" fill="rgb(0,0,0)" d="M 0,12 L 2,12 L 3,13 L 10,13 L 11,12 L 31,12 L 31,19 L 0,19 z " />
    <!--red-->
    <path stroke="rgb(255,0,0)" fill="rgb(255,0,0)" d="M 8,14 L 23,14 L 23,17 L 8,17 z " />
    <!-- signal -->
    <path stroke="rgb(0,0,0)" fill="rgb(0,0,0)" d="M 1,3 L 4,0 L 9,0 L 12,3 L 12,5 L 28,5 L 28,2 L 30,2 L 30,9 L 28,9 L 28,6 L 12,6 L 12,8 L 9,11 L 4,11 L 1,8 z " />
    <!-- Top Green Lamp -->
    <path stroke="rgb(0,0,0)" fill="rgb(90,90,90)" d="M 2,4 L 3,4 L 4,5 L 4,6 L 3,7 L 2,7 L 1,6 L 1,5 z " />
    <!-- Bottom Green Lamp -->
    <path stroke="rgb(0,0,0)" fill="rgb(90,90,90)" d="M 10,4 L 11,4 L 12,5 L 12,6 L 11,7 L 10,7 L 9,6 L 9,5 z "></path>
    <!-- Centre Lamp -->
    <path stroke="rgb(0,0,0)" fill="rgb(0,0,0)" d="M 6,4 L 7,4 L 8,5 L 8,6 L 7,7 L 6,7 L 5,6 L 5,5 z " />
    <!--Left Red Lamp -->
    <path stroke="rgb(0,0,0)" fill="rgb(90,90,90)" d="M 6,8 L 7,8 L 8,9 L 8,10 L 7,11 L 6,11 L 5,10 L 5,9 z " />
    <!-- Right Red Lamp -->
    <path stroke="rgb(0,0,0)" fill="rgb(90,90,90)" d="M 6,0 L 7,0 L 8,1 L 8,2 L 7,3 L 6,3 L 5,2 L 5,1 z "></path>
    <!-- Right Yellow Lamp -->
    <path stroke="rgb(0,0,0)" fill="rgb(90,90,90)" d="M 3,1 L 4,1 L 5,2 L 5,3 L 4,4 L 3,4 L 2,3 L 2,2 z "></path>
    <!-- Left Yellow Lamp -->
    <path stroke="rgb(0,0,0)" fill="rgb(90,90,90)" d="M 9,7 L 10,7 L 11,8 L 11,9 L 10,10 L 9,10 L 8,9 L 8,8 z " />
    <!-- Right Lunar Lamp -->
    <path stroke="rgb(0,0,0)" fill="rgb(0,0,0)" d="M 9,1 L 10,1 L 11,2 L 11,3 L 10,4 L 9,4 L 8,3 L 8,2 z " />
    <!-- Left Lunar Lamp -->
    <path stroke="rgb(0,0,0)" fill="rgb(0,0,0)" d="M 3,7 L 4,7 L 5,8 L 5,9 L 4,10 L 3,10 L 2,9 L 2,8 z "></path>
  </g>
</svg>