<svg width="32" height="32">
  <g>
	<!-- R-Track -->
    <path stroke="rgb(0,0,0)" fill="rgb(0,0,0)" d="M 5,0 L 5,12 L 26,12 L 26,0 z " />
	<path stroke="rgb(0,0,0)" fill="rgb(0,0,0)" d="M 5,18 L 5,31 L 26,31 L 26,18 z " />
    <!-- R-Grey -->
    <path stroke="rgb(192,192,192)" fill="rgb(192,192,192)" d="M 7,0 L 7,12 L 24,12 L 24,0 z " />
	<path stroke="rgb(192,192,192)" fill="rgb(192,192,192)" d="M 7,18 L 7,31 L 24,31 L 24,18 z " />
    <!-- Track -->
    <path stroke-width="1" stroke="rgb(0,0,0)" fill="none" d="M 0,15 L 2,13 L 29,13 L 31,15 L 31,16 L 29,18 L 2,18 L 0,16 z " />
	<!-- Ausleuchtung grau -->
    <!--path stroke="rgb(192,192,192)" fill="rgb(192,192,192)" d="M 8,14 L 23,14 L 23,17 L 8,17 z " /-->
	<!--path stroke="rgb(192,192,192)" fill="rgb(192,192,192)" d="M 8,46 L 23,46 L 23,49 L 8,49 z " /-->
    <!-- gate -->
	<path stroke-width="1" stroke="rgb(0,0,0)" fill="none" d="M 2,4 L 2,8 L 1,8 L 1,4 z" />
	<path stroke-width="1" stroke="rgb(0,255,0)" fill="none" d="M 2,8 L 5,22 L 6,22 L 3,8 z" />
	<path stroke-width="1" stroke="rgb(0,0,0)" fill="none" d="M 29,28 L 29,24 L 30,24 L 30,28 z" />
	<path stroke-width="1" stroke="rgb(0,255,0)" fill="none" d="M 26,10 L 29,24 L 28,24 L 25,10 z" />
	</g>
</svg>


