<svg width="64" height="32">
  <g>
    <!-- Abzweig oben rechts -->
  <path stroke="black" fill="rgb(0, 0, 255)" d="M 47,0 L 47,4 L 44,6 L 40,3 L 43,0 L 47,0 z " />
  <path stroke="black" fill="rgb(0, 0, 255)" d="M 32,13 L 32,10 L 35,7 L 39,11 L 36,13 L 32,13 z " />
  <path stroke="black" fill="rgb(128,255,255)" d="M 35,7 L 40,3 L 44,6 L 39,11 L 35,7 z " />

    <!-- Abzweig unten links -->
  <path stroke="black" fill="rgb(0, 0, 255)"  d="M 16,31 L 19,32 L 23,30 L 20,25 L 17,27 L 16,31 z " />
  <path stroke="black" fill="rgb(0, 0, 255)"  d="M 32,20 L 31,24 L 28,26 L 25,22 L 28,19 L 32,20 z " />
  <path stroke="black" fill="rgb(128,255,255)"  d="M 25,22 L 28,26 L 23,30 L 20,25 L 25,22 z " />

	
    <!-- linke gerade -->
  <path stroke="black" fill="rgb(0, 0, 255)" d="M 0,15 L 2,13 L 8,12 L 8,17 L 2,18 L 0,16 L 0,15 z " />
  <path stroke="black" fill="rgb(0, 0, 255)" d="M 23,11 L 29,10 L 31,12 L 31,13 L 29,15 L 23,16 L 23,11 z " />
  <path stroke="black" fill="rgb(128,255,255)" d="M 8,12 L 23,11 L 23,16 L 8,17 L 8,12 z " />

    <!-- rechte gerade -->
  <path stroke="black" fill="rgb(0, 0, 255)" d="M 32,19 L 34,17 L 40,16 L 40,21 L 34,22 L 32,20 L 32,19 z " />
  <path stroke="black" fill="rgb(0, 0, 255)" d="M 55,14 L 61,13 L 63,15 L 63,16 L 61,18 L 55,19 L 55,14 z " />
  <path stroke="black" fill="rgb(128,255,255)" d="M 40,16 L 55,14 L 55,19 L 40,21 L 40,16 z " />
  </g>
</svg>