<svg width="64" height="32">
  <g>
    <!-- Abzweig oben rechts -->
    <path stroke="black" fill="rgb(255,0,0)" d="M 47,0 L 47,4 L 44,7 L 40,3 L 43,0 L 47,0 z " />
    <path stroke="black" fill="rgb(255,0,0)" d="M 32,15 L 32,11 L 35,8 L 39,12 L 36,15 L 32,15 z " />
    <path stroke="black" fill="rgb(255,255,128)" d="M 35,8 L 40,3 L 44,7 L 39,12 L 35,8 z " />
    <!-- Abzweig unten links -->
    <path stroke="black" fill="rgb(255,0,0)" d="M 16,31 L 20,31 L 23,28 L 19,24 L 16,27 L 16,31 z " />
    <path stroke="black" fill="rgb(255,0,0)" d="M 31,16 L 31,20 L 28,23 L 24,19 L 27,16 L 31,16 z " />
    <path stroke="black" fill="rgb(255,255,128)" d="M 24,19 L 28,23 L 23,28 L 19,24 L 24,19 z " />
    <!-- linke gerade -->
    <path stroke="black" fill="rgb(255,0,0)" d="M 0,15 L 2,13 L 8,13 L 8,18 L 2,18 L 0,16 z " />
    <path stroke="black" fill="rgb(255,0,0)" d="M 23,13 L 29,13 L 31,15 L 31,16 L 29,18 L 23,18 z " />
    <path stroke="black" fill="rgb(255,255,128)" d="M 8,13 L 23,13 L 23,18 L 8,18 z " />
    <!-- rechte gerade -->
    <path stroke="black" fill="rgb(255,0,0)" d="M 32,15 L 34,13 L 40,13 L 40,18 L 34,18 L 32,16 z " />
    <path stroke="black" fill="rgb(255,0,0)" d="M 55,13 L 61,13 L 63,15 L 63,16 L 61,18 L 55,18 z " />
    <path stroke="black" fill="rgb(255,255,128)" d="M 40,13 L 55,13 L 55,18 L 40,18 z " />
    <!-- Bogen oben -->
    <path stroke="rgb(0,0,0)" fill="rgb(0,0,0)" d="M 21,11 L 31,11 L 37,5 L 35,6 L 33,7 L 31,8 L 28,9 L 25,10 L 21,11 z " />
    <!-- Bogen unten -->
    <path stroke="rgb(0,0,0)" fill="rgb(0,0,0)" d="M 43,19 L 33,19 L 26,26 L 28,25 L 30,24 L 32,23 L 35,22 L 38,21 L 42,20 z " />
	</g>
</svg>