<svg width="64" height="32">
  <g>
    <!-- linke gerade -->
    <path stroke="black" fill="rgb(222, 184, 135)" d="M 0,15 L 2,13 L 8,13 L 8,18 L 2,18 L 0,16 z " />
    <path stroke="black" fill="rgb(222, 184, 135)" d="M 23,13 L 29,13 L 31,15 L 31,16 L 29,18 L 23,18 z " />
    <path stroke="black" fill="rgb(255, 200, 160)" d="M 8,13 L 23,13 L 23,18 L 8,18 z " />
    <!-- rechte gerade -->
    <path stroke="black" fill="rgb(222, 184, 135)" d="M 32,15 L 34,13 L 40,13 L 40,18 L 34,18 L 32,16 z " />
    <path stroke="black" fill="rgb(222, 184, 135)" d="M 55,13 L 61,13 L 63,15 L 63,16 L 61,18 L 55,18 z " />
    <path stroke="black" fill="rgb(255, 200, 160)" d="M 40,13 L 55,13 L 55,18 L 40,18 z " />
    <!-- Abzweig oben rechts -->
    <path stroke="black" fill="rgb(0, 0, 255)" d="M 47,0 L 47,4 L 44,7 L 40,3 L 43,0 L 47,0 z " />
    <path stroke="black" fill="rgb(0, 0, 255)" d="M 32,15 L 32,11 L 35,8 L 39,12 L 36,15 L 32,15 z " />
    <path stroke="black" fill="rgb(0, 255, 255)" d="M 35,8 L 40,3 L 44,7 L 39,12 L 35,8 z " />
    <!-- Abzweig unten links -->
    <path stroke="black" fill="rgb(0, 0, 255)" d="M 16,31 L 20,31 L 23,28 L 19,24 L 16,27 L 16,31 z " />
    <path stroke="black" fill="rgb(0, 0, 255)" d="M 31,16 L 31,20 L 28,23 L 24,19 L 27,16 L 31,16 z " />
    <path stroke="black" fill="rgb(20, 255, 255)" d="M 24,19 L 28,23 L 23,28 L 19,24 L 24,19 z " />
    
  </g>
</svg>