<svg width="64" height="32">
  <g>
    <!-- Mast -->
    <path stroke="rgb(0,0,0)" fill="rgb(0,0,0)" d="M 13,25 L 15,23 L 15,28 L 13,26 z " />
    <path stroke="rgb(0,0,0)" fill="rgb(128,128,128)" d="M 16,23 L 29,23 L 29,28 L 16,28 z " />
    <path stroke="rgb(0,0,0)" fill="rgb(255,0,0)" d="M 29,23 L 38,23 L 38,28 L 29,28 z " />  
    <path stroke="rgb(0,0,0)" fill="rgb(255,255,255)" d="M 38,23 L 47,23 L 47,28 L 38,28 z " />  
    <path stroke="rgb(0,0,0)" fill="rgb(128,128,128)" d="M 47,23 L 63,23 L 63,28 L 47,28 z " />
    <!-- Lichtplatte oben -->
    <path stroke="rgb(0,0,0)" fill="rgb(0,0,0)" d="M 22,15 L 25,15 L 26,16 L 26,19 L 21,23 L 18,23 L 17,22 L 17,19 L 22,15 z " />
    <!-- Lichtplatte unten -->
    <path stroke="rgb(0,0,0)" fill="rgb(0,0,0)" d="M 53,15 L 56,15 L 61,19 L 61,22 L 60,23 L 57,23 L 52,19 L 52,16 L 53,15 z " />
    <!-- Lichter oben -->    
    <path stroke="rgb(120,0,0)" fill="rgb(120,0,0)" d="M 19,19 L 20,19 L 21,20 L 21,21 L 20,22 L 19,22 L 18,21 L 18,20 L 22,17 z " />
    <path stroke="rgb(0,255,0)" fill="rgb(0,255,0)" d="M 23,16 L 24,16 L 25,17 L 25,18 L 24,19 L 23,19 L 22,18 L 22,17 z " />
    <!-- Lichter unten -->    
    <path stroke="rgb(128,128,128)" fill="rgb(128,128,128)" d="M 54,16 L 55,16 L 56,17 L 56,18 L 55,19 L 54,19 L 53,18 L 53,17 L 54,16 z " />
    <path stroke="rgb(100,100,0)" fill="rgb(100,100,0)" d="M 58,19 L 59,19 L 60,20 L 60,21 L 59,22 L 58,22 L 57,21 L 57,20 z " />
    <!-- Fluegel oben -->
    <path stroke="rgb(255,0,0)" fill="rgb(255,255,255)" d="M 20,30 L 23,27 L 8,12 L 5,15 z " />
    <path stroke="rgb(255,0,0)" fill="rgb(255,0,0)" d="M 2,7 L 6,7 L 8,9 L 8,13 L 6,15 L 2,15 L 0,13 L 0,9 z " />
    <path stroke="rgb(255,255,255)" fill="rgb(255,255,255)"  d="M 3,8 L 5,8 L 7,10 L 7,12 L 5,14 L 3,14 L 1,12 L 1,10 z " />
    <!-- Fluegel unten -->
    <path stroke="rgb(255,0,0)" fill="rgb(255,255,255)" d="M 33,23 L 54,23 L 54,27 L 33,27 z " />
    <path stroke="rgb(255,0,0)" fill="rgb(255,0,0)" d="M 27,21 L 31,21 L 33,23 L 33,27 L 31,29 L 27,29 L 25,27 L 27,21 z " />
    <path stroke="rgb(255,255,255)" fill="rgb(255,255,255)"  d="M 28,22 L 30,22 L 32,24 L 32,26 L 30,28 L 28,28 L 26,26 L 26,24 z " />
  </g>
</svg>