<svg width="32" height="32">
  <g>
	<path stroke="black" fill="rgb(222, 184, 135)" d="M 16,0 L 20,0 L 23,3 L 19,7 L 16,4 L 16,0 z " />
	<path stroke="black" fill="rgb(222, 184, 135)" d="M 31,15 L 27,15 L 24,12 L 28,8 L 31,11 L 31,15 z " />
	<path stroke="black" fill="rgb(255, 200, 160)" d="M 24,12 L 19,7 L 23,3 L 28,8 L 24,12 z " /> 
	
    <path stroke="black" fill="rgb(222, 184, 135)" d="M 16,31 L 16,27 L 19,24 L 23,28 L 20,31 L 16,31  z " />
    <path stroke="black" fill="rgb(222, 184, 135)" d="M 31,16 L 31,20 L 28,23 L 24,19 L 27,16 L 31,16  z " />
    <path stroke="black" fill="rgb(255, 200, 160)" d="M 28,23 L 23,28 L 19,24 L 24,19 L 28,23  z " />
    
    <path stroke="black" fill="red" d="M 0,15 L 2,13 L 8,13 L 8,18 L 2,18 L 0,16 z " />
    <path stroke="black" fill="red" d="M 23,13 L 29,13 L 31,15 L 31,16 L 29,18 L 23,18 z " />
    <path stroke="black" fill="rgb(255,255,128)" d="M 8,13 L 23,13 L 23,18 L 8,18 z " />
  </g>
</svg>