<svg width="32" height="32">
  <g>
<!-- Abzweig unten links -->
    <path stroke="black" fill="rgb(0,0,255)" d="M 0,31 L 4,31 L 7,28 L 3,24 L 0,27 L 0,31 z " />
    <path stroke="black" fill="rgb(0,0,255)" d="M 15,16 L 15,20 L 12,23 L 8,19 L 11,16 L 15,16 z " />
    <path stroke="black" fill="rgb(128,255,255)" d="M 8,19 L 12,23 L 7,28 L 3,24 L 8,19 z " />
	<!-- Abzweig oben links -->    
	<path stroke="black" fill="rgb(222, 184, 135)" d="M 0,0 L 0,4 L 3,7 L 7,3 L 4,0 L 0,0 z " />
	<path stroke="black" fill="rgb(222, 184, 135)" d="M 8,12 L 11,15 L 15,15 L 15,11 L 12,8 L 8,12 z " />
    <path stroke="black" fill="rgb(255, 200, 160)" d="M 3,7 L 8,12 L 12,8 L 7,3 L 3,7 z " />
<!-- Track -->	
    <path stroke="black" fill="rgb(222, 184, 135)" d="M 0,15 L 2,13 L 8,13 L 8,18 L 2,18 L 0,16 z " />
    <path stroke="black" fill="rgb(0,0,255)" d="M 23,13 L 29,13 L 31,15 L 31,16 L 29,18 L 23,18 z " />
    <path stroke="black" fill="rgb(128,255,255)" d="M 8,13 L 23,13 L 23,18 L 8,18 z " />
  </g>
</svg>