<svg width="64" height="64">
  <g>
    <!-- Track -->
    <path stroke="rgb(0,0,0)" fill="rgb(0,0,0)" d="M 0,58 L 63,58 L 63,37 L 0,37 z " />
    <!-- Grey -->
    <path stroke="rgb(0,0,0)" fill="rgb(255,255,255)" d="M 0,57 L 63,57 L 63,38 L 0,38 z " />

<!-- Track -->
    <path stroke="rgb(0,0,0)" fill="rgb(0,0,0)" d="M 0,26 L 63,26 L 63,5 L 0,5 z " />
    <!-- Grey -->
    <path stroke="rgb(0,0,0)" fill="rgb(255,255,255)" d="M 0,25 L 63,25 L 63,6 L 0,6 z " />



<!-- Track -->
    <path stroke="rgb(0,0,0)" fill="rgb(0,0,0)" d="M 5,63 L 26,63 L 26,0 L 5,0 z " />
    <!-- Grey -->
    <path stroke="rgb(192,192,192)" fill="rgb(192,192,192)" d="M 7,0 L 7,63 L 24,63 L 24,0 z " />


<!-- Track -->
    <path stroke="rgb(0,0,0)" fill="rgb(0,0,0)" d="M 37,63 L 58,63 L 58,0 L 37,0 z " />
    <!-- Grey -->
    <path stroke="rgb(192,192,192)" fill="rgb(192,192,192)" d="M 39,0 L 39,63 L 56,63 L 56,0 z " />





  </g>
</svg>
