<svg width="32" height="32">
  <g>
  <!-- Track -->
    <path stroke="rgb(255,0,0)" fill="rgb(255,255,255)" d="M 0,15 L 31,15 L 31,16 L 0,16 z " />
  <!-- signal -->
    <path stroke="rgb(0,0,0)" fill="rgb(0,0,0)" d="M 1,5 L 4,2 L 15,2 L 18,5 L 28,5 L 28,2 L 30,2 L 30,9 L 28,9 L 28,6 L 18,6 L 15,9 L 4,9 L 1,6 z " />
  <!-- Gruene Lampe -->
    <path stroke="rgb(0,255,0)" fill="rgb(0,255,0)" d="M 5,4 L 7,4 L 8,5 L 8,6 L 7,7 L 5,7 L 4,6 L 4,5 z " />
  <!-- Rote Lampe -->
    <path stroke="rgb(100,0,0)" fill="rgb(100,0,0)" d="M 12,4 L 14,4 L 15,5 L 15,6 L 14,7 L 12,7 L 11,6 L 11,5 z " />
  </g>
</svg>
