<?xml version="1.0" encoding="utf-8"?>
<svg width="32" height="32">
  <g>
    <!-- Track -->
    <path stroke="rgb(0,0,0)" fill="rgb(0,0,0)" d="M 0,12 L 1,13 L 4,13 L 5,12 L 6,12 L 7,13 L 14,13 L 15,12 L 16,12 L 17,13 L 20,13 L 21,12 L 31,12 L 31,19 L 0,19 z " />
    <!--gray -->
    <path stroke="rgb(192,192,192)" fill="rgb(192,192,192)" d="M 8,14 L 23,14 L 23,17 L 8,17 z " />
    <!-- signal -->
    <path stroke="rgb(0,0,0)" fill="rgb(0,0,0)" d="M 5,6 L 2,6 L 2,11 L 2,0 L 2,5 L 5,5 L 5,3 L 8,0 L 13,0 L 16,3 L 16,5 L 19,5 L 19,0 L 19,5 L 28,5 L 28,2 L 30,2 L 30,9 L 28,9 L 28,6 L 19,6 L 19,11 L 19,6 L 16,6 L 16,8 L 13,11 L 8,11 L 5,8 z " />
    <!-- Top Green Lamp -->
    <path stroke="rgb(0,0,0)" fill="rgb(90,90,90)" d="M 6,4 L 7,4 L 8,5 L 8,6 L 7,7 L 6,7 L 5,6 L 5,5 z " />
    <!-- Bottom Green Lamp -->
    <path stroke="rgb(0,0,0)" fill="rgb(90,90,90)" d="M 14,4 L 15,4 L 16,5 L 16,6 L 15,7 L 14,7 L 13,6 L 13,5 z "></path>
    <!-- Centre Lamp -->
    <path stroke="rgb(0,0,0)" fill="rgb(0,0,0)" d="M 10,4 L 11,4 L 12,5 L 12,6 L 11,7 L 10,7 L 9,6 L 9,5 z " />
    <!--Left Red Lamp -->
    <path stroke="rgb(0,0,0)" fill="rgb(90,90,90)" d="M 10,8 L 11,8 L 12,9 L 12,10 L 11,11 L 10,11 L 9,10 L 9,9 z " />
    <!-- Right Red Lamp -->
    <path stroke="rgb(0,0,0)" fill="rgb(90,90,90)" d="M 10,0 L 11,0 L 12,1 L 12,2 L 11,3 L 10,3 L 9,2 L 9,1 z "></path>
    <!-- Right Yellow Lamp -->
    <path stroke="rgb(0,0,0)" fill="rgb(255,255,0)" d="M 7,1 L 8,1 L 9,2 L 9,3 L 8,4 L 7,4 L 6,3 L 6,2 z "></path>
    <!-- Right Lunar Lamp -->
    <path stroke="rgb(0,0,0)" fill="rgb(90,90,90)" d="M 13,1 L 14,1 L 15,2 L 15,3 L 14,4 L 13,4 L 12,3 L 12,2 z " />
    <!-- Left Yellow Lamp -->
    <path stroke="rgb(0,0,0)" fill="rgb(255,255,0)" d="M 13,7 L 14,7 L 15,8 L 15,9 L 14,10 L 13,10 L 12,9 L 12,8 z " />
    <!-- Left Lunar Lamp -->
    <path stroke="rgb(0,0,0)" fill="rgb(90,90,90)" d="M 7,7 L 8,7 L 9,8 L 9,9 L 8,10 L 7,10 L 6,9 L 6,8 z "></path>
    <!-- Top Centre Lunar Lamp -->
    <path stroke="rgb(0,0,0)" fill="rgb(224,224,255)" d="M 2,4 L 3,4 L 4,5 L 4,6 L 3,7 L 2,7 L 1,6 L 1,5 z " />
    <!-- Top Left Lunar Lamp -->
    <path stroke="rgb(0,0,0)" fill="rgb(90,90,90)" d="M 2,8 L 3,8 L 4,9 L 4,10 L 3,11 L 2,11 L 1,10 L 1,9 z " />
    <!-- Top Right Yellow Lamp -->
    <path stroke="rgb(0,0,0)" fill="rgb(90,90,90)" d="M 2,0 L 3,0 L 4,1 L 4,2 L 3,3 L 2,3 L 1,2 L 1,1 z " />
    <!-- Bottom Right Yellow Lamp -->
    <path stroke="rgb(0,0,0)" fill="rgb(90,90,90)" d="M 18,0 L 19,0 L 20,1 L 20,2 L 19,3 L 18,3 L 17,2 L 17,1 z " />
    <!-- Bottom Centre Lunar Lamp -->
    <path stroke="rgb(0,0,0)" fill="rgb(90,90,90)" d="M 18,4 L 19,4 L 20,5 L 20,6 L 19,7 L 18,7 L 17,6 L 17,5 z " />
    <!-- Bottom Left Lunar Lamp -->
    <path stroke="rgb(0,0,0)" fill="rgb(90,90,90)" d="M 18,8 L 19,8 L 20,9 L 20,10 L 19,11 L 18,11 L 17,10 L 17,9 z " />
  </g>
</svg>