<svg width="64" height="32">
  <g>
    <!-- Gerade --> 
    <path stroke="rgb(0,0,0)" fill="rgb(0,0,0)" d="M 0,12 L 63,12 L  63,19 L 0,19 z " />
    <!-- Ausleuchtung gerade links gelb -->
    <path stroke="rgb(255,255,0)" fill="rgb(255,255,0)" d="M 8,14 L 23,14 L 23,17 L 8,17 z " />
    <!-- Ausleuchtung gerade rechts grau -->
    <path stroke="rgb(255,255,0)" fill="rgb(255,255,0)" d="M 40,14 L 55,14 L 55,17 L 40,17 z " />
    <!-- Diagonale links oben rechts unten -->  
    <path stroke="rgb(0,0,0)" fill="rgb(0,0,0)" d="M 12,0 L 43,31 L 51,31 L 20,0 z " />
    <!-- Ausleuchtung links oben grau -->
    <path stroke="rgb(255,255,0)" fill="rgb(255,255,0)" d="M 21,3 L 27,9 L 25,11 L 19,5 z " />
    <!-- Ausleuchtung rechts unten gelb -->
    <path stroke="rgb(255,255,0)" fill="rgb(255,255,0)" d="M 38,20 L 44,26 L 42,28 L 36,22 z " />
    <!-- Winkel -->
    <path stroke="rgb(0,0,0)" fill="none" d="M 0,19 C 0,19 21,16 43,31" />
    <path stroke="rgb(0,0,0)" fill="none" d="M 0,18 C 0,18 21,15 44,31" />

    <path stroke="rgb(0,0,0)" fill="none" d="M 20,0 C 20,0 48,17 63,12" />
    <path stroke="rgb(0,0,0)" fill="none" d="M 19,0 C 19,0 48,18 63,13" />
  </g>
</svg>
