<svg width="32" height="32">
  <g>
    <!-- Diagonale links oben rechts unten -->  
    <path stroke="rgb(0,0,0)" fill="rgb(0,0,0)" d="M 0,0 L 4,0 L 31,27 L 31,31 L 27,31 L 0,4 z " />
    <!-- Ausleuchtung links oben grau -->
    <path stroke="rgb(192,192,192)" fill="rgb(192,192,192)" d="M 5,3 L 11,9 L 9,11 L 3,5 z " />
    <!-- Ausleuchtung rechts unten rot -->
    <path stroke="rgb(255,0,0)" fill="rgb(255,0,0)" d="M 22,20 L 28,26 L 26,28 L 20,22 z " />
    <!-- Gerade --> 
    <path stroke="rgb(0,0,0)" fill="rgb(0,0,0)" d="M 0,12 L 31,12 L 31,19 L 0,19 z " />
    <!-- Ausleuchtung gerade links grau -->
    <path stroke="rgb(192,192,192)" fill="rgb(192,192,192)" d="M 8,14 L 23,14 L 23,17 L 8,17 z " />
    <!-- Winkel -->
    <path stroke="rgb(0,0,0)" fill="rgb(0,0,0)" d="M 15,6 L 16,5 L 19,8 L 23,8 L 23,9 L 18,9 L 15,6 z " />
    <path stroke="rgb(0,0,0)" fill="rgb(0,0,0)" d="M 8,22 L 13,22 L 16,25 L 15,26 L 13,23 L 8,23  z " />  </g>
</svg>