<svg width="32" height="32">
  <g>
    <!-- Track -->
    <path stroke="rgb(0,0,0)" fill="rgb(0,0,0)" d="M 0,12 L 31,12 L 31,19 L 0,19 z " />
    <!-- Ausleuchtung grau -->
    <path stroke="rgb(192,192,192)" fill="rgb(192,192,192)" d="M 8,14 L 23,14 L 23,17 L 8,17 z " />
    <!-- Sensor aussen -->
    <path stroke="black" fill="rgb(200,200,200)" d="M 13,8 L 18,8 L 19,9 L 20,9 L 22,11 L 22,12 L 23,13 L 23,18 L 22,19 L 22,20 L 20,22 L 19,22 L 18,23 L 13,23 L 12,22 L 11,22 L 9,20 L 9,19 L 8,18 L 8,13 L 9,12 L 9,11 L 11,9 L 12,9 z " />
  </g>
</svg>
