<svg width="32" height="32">
  <g>
  <!-- Track -->
    <path stroke="rgb(0,0,0)" fill="rgb(0,0,0)" d="M 0,12 L 31,12 L 31,19 L 0,19 z " />
  <!-- Ausleuchtung grau -->
    <path stroke="rgb(192,192,192)" fill="rgb(192,192,192)" d="M 8,14 L 23,14 L 23,17 L 8,17 z " />
  <!-- signal -->
    <path stroke="rgb(0,0,0)" fill="rgb(0,0,0)" d="M 3,1 L 14,1 L 16,3 L 16,5 L 28,5 L 28,2 L 30,2 L 30,9 L 28,9 L 28,6 L 16,6 L 16,8 L 14,10 L 3,10 L 1,8 L 1,3 z " />
  <!-- Rote Lampe -->
    <path stroke="rgb(255,0,0)" fill="rgb(255,0,0)" d="M 4,3 L 5,3 L 5,8 L 4,8 z " />
  <!-- Gelbe Lampe -->  
    <path stroke="rgb(80,80,80)" fill="rgb(80,80,80)" d="M 8,3 L 9,3 L 13,7 L 13,8 L 12,8 L 8,4 z " />    
  </g>
</svg>