<svg  width="32" height="32">
   <g>   
    <path stroke="black" fill="black" 
             d="M 0,12 L 31,12 L 31,19 L 0,19 z" />    
    <path fill="yellow" stroke="yellow"
             d="M 8,14 L 23,14 L 23,17 L 8,17 z" />
    <path stroke="black" fill="black" d="M 4,4 L 8,1 L 9,1 L 11,3 L 11,5 L 13,5 L 13,2 L 14,2 L 14,9 L 13,9 L 13,6 L 11,6 L 11,8 L 9,10 L 8,10 L 4,7 L 3,6 L 3,5 L 4,4 z" />
    <path fill="#817b7b" stroke="#817b7b"
             d="M 5,4 L 6,4 L 7,5 L 7,6 L 6,7 L 5,7 L 4,6 L 4,5 L 5,4 z" />
    <path fill="red" stroke="red"
             d="M 8,6 L 9,6 L 10,7 L 10,8 L 9,9 L 8,9 L 7,8 L 7,7 L 8,6 z" />
    <path fill="#817b7b" stroke="#817b7b"

             d="M 8,2 L 9,2 L 10,3 L 10,4 L 9,5 L 8,5 L 7,4 L 7,3 L 8,2 z" />   
  </g>
</svg>
