<svg width="32" height="32">
  <g>
<!-- Giallo/Lampeggiante Verde/Lampeggiante Spento -->  
<!-- Tracciato -->    
<path
       stroke="rgb(0,0,0)"
       fill="rgb(0,0,0)"
       d="M 0,12 L 31,12 L 31,19 L 0,19 z " />
<!-- Palo -->    <path
       stroke="rgb(0,0,0)"
       fill="rgb(0,0,0)"
       d="M 11,5 L 29,5 L 29,2 L 30,2 L 30,9 L 30,9 L 29,9 L 29,6 L 11,6 L 11,5 z "/>
<!-- Vela Alta--> 
<!-- Disco Nero -->   
<path
       d="M 4,10 L 1,7 L 1,4 L 4,1 L 7,1 L 10,4 L 10,7 L 7,10 L 4,10 z "
       id="path2169"
       stroke="rgb(0,0,0)"
       fill="rgb(0,0,0)" />
<!-- Corona Bianca --> 
<path
       d="M 4,9 L 2,7 L 2,4 L 4,2 L 7,2 L 9,4 L 9,7 L 7,9 L 4,9 z "
       stroke="rgb(255,255,255)"
       fill="none" />
<!-- Luce -->    <path
       d="M 5,4 L 6,4 L 7,5 L 7,6 L 6,7 L 5,7 L 4,6 L 4,5 L 5,4 z "
       stroke="rgb(255,255,0)"
       fill="rgb(255,255,0)" />
<!-- Lampo --> 
<path
       d="M 5,6 L 9,2 L 9,6 L 13,2 L 13,2 L 9,6 L 9,2 L 5,6 L 5,6 z "
       stroke="rgb(255,0,0)"
       fill="none" />  
<!-- Vela Bassa--> 
<!-- Disco Nero -->   
<path
       d="M 14,10 L 11,7 L 11,4 L 14,1 L 17,1 L 20,4 L 20,7 L 17,10 L 14,10 z "
       id="path2170"
       stroke="rgb(0,0,0)"
       fill="rgb(0,0,0)" />
<!-- Corona Bianca --> 
<path
       d="M 14,9 L 12,7 L 12,4 L 14,2 L 17,2 L 19,4 L 19,7 L 17,9 L 14,9 z "
       stroke="rgb(255,255,255)"
       fill="none" />
<!-- Luce -->    <path
       d="M 15,4 L 16,4 L 17,5 L 17,6 L 16,7 L 15,7 L 14,6 L 14,5 L 15,4 z "
       stroke="rgb(0,255,0)"
       fill="rgb(0,255,0)" />       
<!-- Lampo --> 
<path
       d="M 15,6 L 19,2 L 19,6 L 23,2 L 23,2 L 19,6 L 19,2 L 15,6 L 15,6 z "
       stroke="rgb(255,0,0)"
       fill="none" /> 
<!-- Vela Terra--> 
<!-- Disco Nero -->   
<path
       d="M 24,10 L 21,7 L 21,4 L 24,1 L 27,1 L 30,4 L 30,7 L 27,10 L 24,10 z "
       id="path2170"
       stroke="rgb(0,0,0)"
       fill="rgb(0,0,0)" />
<!-- Corona Bianca --> 
<path
       d="M 24,9 L 22,7 L 22,4 L 24,2 L 27,2 L 29,4 L 29,7 L 27,9 L 24,9 z "
       stroke="rgb(255,255,255)"
       fill="none" />
<!-- Luce -->    <path
       d="M 25,4 L 26,4 L 27,5 L 27,6 L 26,7 L 25,7 L 24,6 L 24,5 L 25,4 z "
       stroke="rgb(0,0,0)"
       fill="rgb(0,0,0)" />       
  </g>
</svg>