<svg width="32" height="32">
  <g>
<!-- Track -->    <path
       d="M 0,12 L 31,12 L 31,19 L 0,19 z "
       id="path11960"
       stroke="rgb(0,0,0)"
       fill="rgb(0,0,0)" />
<!-- Ausleuchtung grau -->  
    <path
       label="#sfondo"
       d="M 10,10 L 21,10 L 21,21 L 10,21 L 10,10 z "
       id="path24173"
       stroke="rgb(0,0,0)"
       fill="rgb(0,128,128)" />
    <path
       label="#sfondo"
       d="M 14,14 L 19,14 L 19,19 L 14,19 L 14,14 z "
       id="path29037"
       stroke="rgb(255,255,0)"
       fill="rgb(255,255,255)"  />
    <path
       inkscape:label="#sfondo"
       d="M 11,11 L 11,11 L 11,20 L 11,20 L 11,11 z "
       id="path31946"
       stroke="rgb(128,128,128)"
       fill="rgb(128,128,128)" />
    <path
       inkscape:label="#sfondo"
       d="M 11,11 L 20,11 L 20,11 L 11,11 L 11,11 z "
       id="path32917"
       stroke="rgb(128,128,128)"
       fill="rgb(128,128,128)" />
    <path
       label="#sfondo"
       d="M 13,13 L 15,13 L 15,15 L 13,15 L 13,13 z "
       id="path29999"
       stroke="(0,128,128)"
       fill="rgb(0,128,128)" />
    <path
       label="#sfondo"
       d="M 13,18 L 15,18 L 15,20 L 13,20 L 13,18 z "
       id="path37586"
       stroke="(0,128,128)"
       fill="rgb(0,128,128)" />
    <path
       label="#sfondo"
       d="M 20,13 L 20,13 L 20,15 L 18,15 L 18,13 z "
       id="path37624"
       stroke="(0,128,128)"
       fill="rgb(0,128,128)" />
    <path
       label="#sfondo"
       d="M 20,18 L 20,18 L 20,20 L 18,20 L 18,18 z "
       id="path37626"
       stroke="(0,128,128)"
       fill="rgb(0,128,128)" />
  </g>
</svg>
