<svg width="32" height="32">
  <g>
<!-- Ausleuchtung grau -->    <path
       label="#sfondo"
       d="M 10,10 L 21,10 L 21,21 L 10,21 L 10,10 z "
       id="path24173"
       stroke="rgb(0,0,0)"
       fill="rgb(0,128,128)" />
    <path
       label="#sfondo"
       d="M 13,13 L 18,13 L 18,18 L 13,18 L 13,13 z "
       id="path29037"
       stroke="rgb(255,255,0)"
       fill="rgb(255,255,255)" />
    <path
       label="#sfondo"
       d="M 11,11 L 11,11 L 11,20 L 11,20 L 11,11 z "
       id="path31946"
       stroke="rgb(255,255,255)"
       fill="rgb(255,255,255)" />
    <path
       label="#sfondo"
       d="M 11,11 L 20,11 L 20,11 L 11,11 L 11,11 z "
       id="path32917"
       stroke="rgb(255,255,255)"
       fill="rgb(255,255,255)" />
    <path
       label="#sfondo"
       d="M 12,12 L 14,12 L 14,14 L 12,14 L 12,12 z "
       id="path29999"
       stroke="(0,128,128)"
       fill="rgb(0,128,128)" />
    <path
       label="#sfondo"
       d="M 12,17 L 14,17 L 14,19 L 12,19 L 12,17 z "
       id="path37586"
       stroke="(0,128,128)"
       fill="rgb(0,128,128)" />
    <path
       label="#sfondo"
       d="M 19,12 L 19,12 L 19,14L 17,14 L 17,12 z "
       id="path37624"
       stroke="(0,128,128)"
       fill="rgb(0,128,128)" />
    <path
       label="#sfondo"
       d="M 19,17 L 19,17 L 19,19 L 17,19 L 17,17 z "
       id="path37626"
       stroke="(0,128,128)"
       fill="rgb(0,128,128)" />
  </g>
</svg>
