<svg width="32" height="32">
  <g>
<!-- Tracciato -->    
<path
       stroke="rgb(0,0,0)"
       fill="rgb(0,0,0)"
       d="M 0,12 L 31,12 L 31,19 L 0,19 z " />
<!-- Ausleuchtung grau -->    
<path
       stroke="rgb(255,0,0)"
       fill="rgb(255,0,0)"
       d="M 8,14 L 23,14 L 23,17 L 8,17 z " />
<!-- Palo -->    <path
       stroke="rgb(0,0,0)"
       fill="rgb(0,0,0)"
       d="M 11,5 L 29,5 L 29,2 L 30,2 L 30,9 L 30,9 L 29,9 L 29,6 L 11,6 L 11,5 z "/>
<!-- vela --> 
<!-- Disco Nero -->   
<path
       d="M 4,10 L 1,7 L 1,4 L 4,1 L 7,1 L 10,4 L 10,7 L 7,10 L 4,10 z "
       id="path2169"
       stroke="rgb(0,0,0)"
       fill="rgb(0,0,0)" />
<!-- Corona Bianca --> 
<path
       d="M 4,9 L 2,7 L 2,4 L 4,2 L 7,2 L 9,4 L 9,7 L 7,9 L 4,9 z "
       stroke="rgb(255,255,255)"
       fill="none" />
<!-- Luce -->    <path
       d="M 5,4 L 6,4 L 7,5 L 7,6 L 6,7 L 5,7 L 4,6 L 4,5 L 5,4 z "
       stroke="rgb(0,255,0)"
       fill="rgb(0,255,0)" />
  </g>
</svg>