<svg width="64" height="32">
  <g>
    <!-- Gerade --> 
    <path stroke="rgb(0,0,0)" fill="rgb(0,0,0)" d="M 0,12 L 63,12 L  63,19 L 0,19 z " />
    <!-- Diagonale links unten rechts oben -->  
    <path stroke="rgb(0,0,0)" fill="rgb(0,0,0)" d="M 12,31 L 42,0 L 51,0 L 21,31 z " />
    <!-- Bogen oben -->
    <path stroke="rgb(0,0,0)" fill="rgb(0,0,0)" d="M 21,11 L 31,11 L 37,5 L 35,6 L 33,7 L 31,8 L 28,9 L 25,10 L 21,11 z " />
    <!-- Bogen unten -->
    <path stroke="rgb(0,0,0)" fill="rgb(0,0,0)" d="M 43,19 L 33,19 L 26,26 L 28,25 L 30,24 L 32,23 L 35,22 L 38,21 L 42,20 z " />
    <!-- Ausleuchtung links oben gelb -->
    <path stroke="rgb(255,255,0)" fill="rgb(255,255,0)" d="M 8,14 L 20,14 L 21,13 L 25,12 L 28,11 L 31,10 L 33,9 L 35,8 L 37,7 L 41,3 L 43,3 L 44,4 L 44,5 L 38,11 L 36,12 L 34,13 L 31,14 L 28,15 L 25,16 L 21,17 L 8,17 z " />
    <!-- Ausleuchtung rechts unten gelb -->
    <path stroke="rgb(255,255,0)" fill="rgb(255,255,0)" d="M 19,26 L 25,20 L 27,19 L 29,18 L 32,17 L 35,16 L 38,15 L 42,14 L 55,14 L 55,17 L 43,17 L 42,18 L 38,19 L 35,20 L 32,21 L 30,22 L 28,23 L 26,24 L 22,28 L 20,28 L 19,27 L 19,26 z " />

  </g>
</svg>
