<!-- Verschubsignal OeBB Verschubverbot -->
<svg width="32" height="32">
  <g>
  <!-- Track -->
    <path stroke="rgb(0,0,0)" fill="rgb(0,0,0)" d="M 0,12 L 31,12 L 31,19 L 0,19 z " />
  <!-- Ausleuchtung grau -->
    <path stroke="rgb(192,192,192)" fill="rgb(192,192,192)" d="M 8,14 L 23,14 L 23,17 L 8,17 z " />
  <!-- Signal -->
    <path stroke="rgb(0,0,0)" fill="rgb(0,0,0)" d="M 1,1 L 15,1 L 15,5 L 28,5 L 28,2 L 30,2 L 30,9 L 28,9 L 28,6 L 15,6 L 15,10 L 1,10 L 1,5 z " />
  <!-- Weisse Lampe rechts oben-->
    <path stroke="rgb(90,90,90)" fill="rgb(90,90,90)" d="M 3,2 L 5,2 L 5,4 L 3,4 z " />
  <!-- Weisse Lampe links Mitte-->
    <path stroke="rgb(255,255,255)" fill="rgb(255,255,255)" d="M 8,7 L 10,7 L 10,9 L 8,9 z " />
  <!-- Weisse Lampe rechts Mitte-->  
    <path stroke="rgb(255,255,255)" fill="rgb(255,255,255)" d="M 8,2 L 10,2 L 10,4 L 8,4 z " />    
  <!-- Weisse Lampe links unten -->  
    <path stroke="rgb(90,90,90)" fill="rgb(90,90,90)" d="M 11,7 L 13,7 L 13,9 L 11,9 z " />    
  </g>
</svg>
