<!-- Hauptsignal OeBB Frei 60 km/h -->
<svg width="32" height="32">
  <g>
  <!-- Track -->
    <path stroke="rgb(0,0,0)" fill="rgb(0,0,0)" d="M 0,12 L 31,12 L 31,19 L 0,19 z " />
  <!-- Ausleuchtung rot -->
    <path stroke="rgb(255,0,0)" fill="rgb(255,0,0)" d="M 8,14 L 23,14 L 23,17 L 8,17 z " />
  <!-- Signal -->
    <path stroke="rgb(0,0,0)" fill="rgb(0,0,0)" d="M 1,1 L 25,1 L 25,5 L 28,5 L 28,2 L 30,2 L 30,9 L 28,9 L 28,6 L 25,6 L 25,10 L 1,10 L 1,3 z " />
  <!-- Gruene Lampe oben -->
    <path stroke="rgb(0,255,0)" fill="rgb(0,255,0)" d="M 4,3 L 6,3 L 7,4 L 7,5 L 6,6 L 4,6 L 3,5 L 3,4 z " />
  <!-- Gelbe Lampe -->
    <path stroke="rgb(90,90,0)" fill="rgb(90,90,0)" d="M 13,3 L 15,3 L 16,4 L 16,5 L 15,6 L 13,6 L 12,5 L 12,4 z " />
  <!-- Gruene Lampe unten -->  
    <path stroke="rgb(0,255,0)" fill="rgb(0,255,0)" d="M 20,3 L 22,3 L 23,4 L 23,5 L 22,6 L 20,6 L 19,5 L 19,4 z " />    
  </g>
</svg>
