<svg width="32" height="32">
  <g>
  <!-- Track -->
    <path stroke="rgb(0,0,0)" fill="rgb(0,0,0)" d="M 0,12 L 31,12 L 31,19 L 0,19 z " />
  <!-- Ausleuchtung rot -->
    <path stroke="rgb(255,0,0)" fill="rgb(255,0,0)" d="M 8,14 L 23,14 L 23,17 L 8,17 z " />
  <!-- signal -->
    <path stroke="rgb(0,0,0)" fill="rgb(0,0,0)" d="M 1,1 L 11,1 L 15,5 L 28,5 L 28,2 L 30,2 L 30,9 L 28,9 L 28,6 L 16,6 L 16,10 L 6,10 L 1,5 z " />
  <!-- Gruene Lampe rechts -->
    <path stroke="rgb(0,255,0)" fill="rgb(0,255,0)" d="M 3,2 L 5,2 L 5,4 L 3,4 z " />
  <!-- Gruene Lampe links -->
    <path stroke="rgb(0,255,0)" fill="rgb(0,255,0)" d="M 7,7 L 9,7 L 9,9 L 7,9 z " />
  <!-- Gelbe Lampe rechts -->  
    <path stroke="rgb(255,255,0)" fill="rgb(255,255,0)" d="M 8,2 L 10,2 L 10,4 L 8,4 z " />    
  <!-- Gelbe Lampe links -->  
    <path stroke="rgb(255,255,0)" fill="rgb(255,255,0)" d="M 12,7 L 14,7 L 14,9 L 12,9 z " />    
  </g>
</svg>
