<svg width="64" height="32">
  <g>
    <path stroke="rgb(0,0,0)" fill="rgb(0,0,0)" d="M 13,25 L 15,23 L 15,28 L 13,26 z " />
    <path stroke="rgb(0,0,0)" fill="rgb(128,128,128)" d="M 20,23 L 29,23 L 29,28 L 20,28 z " />
    <path stroke="rgb(0,0,0)" fill="rgb(255,0,0)" d="M 29,23 L 38,23 L 38,28 L 29,28 z " />  
    <path stroke="rgb(0,0,0)" fill="rgb(255,255,255)" d="M 38,23 L 47,23 L 47,28 L 38,28 z " />  
    <path stroke="rgb(0,0,0)" fill="rgb(255,0,0)" d="M 47,23 L 56,23 L 56,28 L 47,28 z " />  
    <path stroke="rgb(0,0,0)" fill="rgb(128,128,128)" d="M 56,23 L 63,23 L 63,28 L 56,28 z " />

    <path stroke="rgb(255,0,0)" fill="rgb(255,255,255)" d="M 16,30 L 20,30 L 20,9 L 16,9 z " />
    <path stroke="rgb(255,0,0)" fill="rgb(255,0,0)" d="M 16,1 L 20,1 L 22,3 L 22,7 L 20,9 L 16,9 L 14,7 L 14,3 z " />
    <path stroke="rgb(255,255,255)" fill="rgb(255,255,255)"  d="M 17,2 L 19,2 L 21,4 L 21,6 L 19,8 L 17,8 L 15,6 L 15,4 z " />

    <path stroke="rgb(0,0,0)" fill="rgb(0,0,0)" d="M 22,15 L 25,15 L 30,19 L 30,22 L 29,23 L 26,23 L 21,19 L 21,16 L 22,15 z " />
    
    <path stroke="rgb(255,0,0)" fill="rgb(255,0,0)" d="M 23,16 L 24,16 L 25,17 L 25,18 L 24,19 L 23,19 L 22,18 L 22,17 z " />
    <path stroke="rgb(0,80,0)" fill="rgb(0,80,0)" d="M 27,19 L 28,19 L 29,20 L 29,21 L 28,22 L 27,22 L 26,21 L 26,20 z " />
  </g>
</svg>