<svg width="32" height="32">
  <g>
    <!-- Abzweig -->
    <path stroke="black" fill="rgb(222, 184, 135)" d="M 16,15 L 16,19 L 13,22 L 9,18 L 12,15  z " />
    <path stroke="black" fill="rgb(222, 184, 135)" d="M 0,31 L 0,27 L 3,24 L 7,28 L 4,31  z " />
    <path stroke="black" fill="rgb(255, 200, 160)" d="M 9,18 L 13,22 L 7,28 L 3,24  z " />
    <!-- Gerader Strang -->
    <path stroke="black" fill="rgb(0,0,255)" d="M 0,15 L 2,13 L 8,13 L 8,18 L 2,18 L 0,16 z " />
    <path stroke="black" fill="rgb(0,0,255)" d="M 23,13 L 29,13 L 31,15 L 31,16 L 29,18 L 23,18 z " />
    <path stroke="black" fill="rgb(0,255,255)" d="M 8,13 L 23,13 L 23,18 L 8,18 z " />
  </g>
</svg>