<?xml version="1.0" encoding="utf-8"?>
<svg width="32" height="32">
  <g>
    <!-- Track -->
    <path stroke="rgb(0,0,0)" fill="rgb(0,0,0)" d="M 0,12 L 31,12 L 31,19 L 0,19 z " />
    <!--yellow-->
    <path stroke="rgb(255,255,0)" fill="rgb(255,255,0)" d="M 8,14 L 23,14 L 23,17 L 8,17 z " />
    <!-- signal -->
    <path stroke="rgb(0,0,0)" fill="rgb(0,0,0)" d="M 1,5 L 3,3 L 6,3 L 8,5 L 8,3 L 10,1 L 13,1 L 15,3 L 15,5 L 28,5 L 28,2 L 30,2 L 30,9 L 28,9 L 28,6 L 15,6 L  13,8 L 10,8 L 8,6 L 8,8 L 6,10 L 3,10 L 1,8 z " />
    <!-- Top Lamp -->
    <path stroke="rgb(255,255,0)" fill="rgb(255,255,0)" d="M 4,5 L 5,5 L 6,6 L 6,7 L 5,8 L 4,8 L 3,7 L 3,6 z " />
    <!-- Bottom Lamp -->
    <path stroke="rgb(0,255,0)" fill="rgb(0,255,0)" d="M 11,3 L 12,3 L 13,4 L 13,5 L 12,6 L 11,6 L 10,5 L 10,4 z " />
  </g>
  <g>
    <!-- Track -->
    <path stroke="rgb(0,0,0)" fill="rgb(0,0,0)" d="M 0,12 L 31,12 L 31,19 L 0,19 z " />
    <!--yellow-->
    <path stroke="rgb(255,255,0)" fill="rgb(255,255,0)" d="M 8,14 L 23,14 L 23,17 L 8,17 z " />
    <!-- signal -->
    <path stroke="rgb(0,0,0)" fill="rgb(0,0,0)" d="M 1,5 L 3,3 L 6,3 L 8,5 L 8,3 L 10,1 L 13,1 L 15,3 L 15,5 L 28,5 L 28,2 L 30,2 L 30,9 L 28,9 L 28,6 L 15,6 L  13,8 L 10,8 L 8,6 L 8,8 L 6,10 L 3,10 L 1,8 z " />
    <!-- Top Lamp -->
    <path stroke="rgb(255,255,0)" fill="rgb(255,255,0)" d="M 4,5 L 5,5 L 6,6 L 6,7 L 5,8 L 4,8 L 3,7 L 3,6 z " />
    <!-- Bottom Lamp -->
    <path stroke="rgb(90,90,90)" fill="rgb(90,90,90)" d="M 11,3 L 12,3 L 13,4 L 13,5 L 12,6 L 11,6 L 10,5 L 10,4 z " />
  </g>
</svg>