<svg width="32" height="32">
  <g>
      <!-- Track -->
      <path d="M 0,12 L 31,12 L 31,19 L 0,19 z " fill="rgb(0,0,0)" stroke="rgb(0,0,0)" />
      <!-- Illumination grey -->
      <path d="M 8,14 L 23,14 L 23,17 L 8,17 z " fill="rgb(192,192,192)" stroke="rgb(192,192,192)" />
      <!-- signal -->
      <path d="M 14,5 L 15,5 L 15,4 L 16,3 L 27,3 L 27,4 L 28,5 L 29,5 L 29,3 L 30,3 L 30,8 L 29,8 L 29,6 L 28,6 L 27,7 L 27,8 L 16,8 L 15,7 L 15,6 L 14,6 z" fill="rgb(0,0,0)" stroke="rgb(0,0,0)" />
      <!-- Red -->
      <path d="M 17,4 L 18,4 L 19,5 L 19,6 L 18,7 L 17,7 L 16,6 L 16,5 z" fill="rgb(88,0,0)" stroke="rgb(88,0,0)" />
      <!-- White -->
      <path d="M 22,4 L 23,4 L 24,5 L 24,6 L 23,7 L 22,7 L 21,6 L 21,5 z" fill="rgb(255,255,255)" stroke="rgb(255,255,255)" />
  </g>
</svg>
