<svg width="32" height="32">
  <g>
      <!-- Track -->
      <path d="M 0,12 L 31,12 L 31,19 L 0,19 z " fill="rgb(0,0,0)" stroke="rgb(0,0,0)" />
      <!-- Illumination grau -->
      <path d="M 8,14 L 23,14 L 23,17 L 8,17 z " fill="rgb(192,192,192)" stroke="rgb(192,192,192)" />
      <!-- Distant signal -->
      <path d="M 1,1 L 13,1 L 15,2 L 16,4 L 29,4 L 29,2 L 30,2 L 30,8 L 29,8 L 29,6 L 16,6 L 15,8 L 13,9 L 1,9 z" fill="rgb(0,0,0)" stroke="rgb(0,0,0)" />
      <!-- Green -->
      <path d="M 4,3 L 6,3 L 7,4 L 7,6 L 6,7 L 4,7 L 3,6 L 3,4 z" fill="rgb(0,255,0)" stroke="rgb(0,255,0)" />     
	  <!-- Yellow -->
      <path d="M 11,3 L 13,3 L 14,4 L 14,6 L 13,7 L 11,7 L 10,6 L 10,4 z" fill="rgb(88,88,0)" stroke="rgb(88,88,0)" />
  </g>
</svg>
