<svg width="64" height="32">
  <g>
    <!-- rechte gerade -->
    <path stroke-width="1" stroke="black" fill="rgb(255, 255, 255)" d="M 32,15 L 34,13 L 61,13 L 63,15 L 63,16 L 61,18 L 34,18 L 32,16 L 32,15 z " />
    <!-- Abzweig oben links -->
    <path stroke-width="1" stroke="black" fill="rgb(255, 255, 255)" d="M 16,0 L 16,3 L 28,15 L 31,15 L 31,12 L 19,0 L 16,0 z " />
    <!-- linke gerade -->
    <path stroke-width="1" stroke="black" fill="rgb(0, 0, 0)" d="M 0,15 L 2,13 L 29,13 L 31,15 L 31,16 L 29,18 L 2,18 L 0,16 L 0,16 z " />
    <!-- Abzweig unten rechts -->
    <path stroke-width="1" stroke="black" fill="rgb(0, 0, 0)" d="M 32,16 L 35,16 L 47,28 L 47,31 L 44,31 L 32,19 L 32,16 z " />
  </g>
</svg>