<svg width="64" height="32">
  <g>
    <!-- Gerade --> 
    <path stroke="rgb(0,0,0)" fill="rgb(0,0,0)" d="M 0,12 L 63,12 L  63,19 L 0,19 z " />
    <!-- Diagonale links oben rechts unten -->  
    <path stroke="rgb(0,0,0)" fill="rgb(0,0,0)" d="M 12,0 L 43,31 L 51,31 L 20,0 z " />
    <!-- Bogen oben -->
    <path stroke="rgb(0,0,0)" fill="rgb(0,0,0)" d="M 26,5 L 28,6 L 30,7 L 32,8 L 35,9 L 38,10 L 42,11 L 33,12 L 27,6 z " />
    <!-- Bogen unten -->
    <path stroke="rgb(0,0,0)" fill="rgb(0,0,0)" d="M 21,20 L 25,21 L 28,22 L 31,23 L 33,24 L 35,25 L 37,26 L 31,20 L 21,20 z " />
    <!-- Ausleuchtung links unten gelb -->
    <path stroke="rgb(255,255,0)" fill="rgb(255,255,0)" d="M 8,14 L 21,14 L 25,15 L 28,16 L 31,17 L 34,18 L 36,19 L 38,20 L 44,26 L 44,27 L 43,28 L 41,28 L 37,24 L 35,23 L 33,22 L 31,21 L 28,20 L 25,19 L 21,18 L 8,17 L 8,14 z " />
    <!-- Ausleuchtung rechts oben gelb -->
    <path stroke="rgb(255,255,0)" fill="rgb(255,255,0)" d="M 19,4 L 19,5 L 25,11 L 27,12 L 29,13 L 32,14 L 35,15 L 38,16 L 42,17 L 55,17 L 55,14 L 43,14 L 42,13 L 38,12 L 35,11 L 32,10 L 30,9 L 28,8 L 26,7 L 22,3 L 20,3 L 19,4 z " />

  </g>
</svg>
