<svg width="32" height="32">  
<g>
<path stroke="black" fill="white" d="M 32,22 L 30,22 L 30,27 L 27,30 L 4,30 L 1,27 L 1,4 L 4,1 L 13,1 L 17,9 L 27,9 L 30,12 L 30,17 L 32,17 L 32,22 z " />
<path stroke="white" fill="black" d="M 29,19 L 29,26 L 26,29 L 5,29 L 2,26 L 2,5 L 5,2 L 12,2 L 16,10 L 26,10 L 29,13 L 29,19 z " />
<path stroke="grey" fill="grey" d="M 24,22 L 25,21 L 27,21 L 28,22 L 28,24 L 27,25 L 25,25 L 24,24 L 24,22 z " />
<path stroke="yellow" fill="yellow" d="M 17,22 L 18,21 L 20,21 L 21,22 L 21,24 L 20,25 L 18,25 L 17,24 L 17,22 z " />
<path stroke="grey" fill="grey" d="M 10,22 L 11,21 L 13,21 L 14,22 L 14,24 L 13,25 L 11,25 L 10,24 L 10,22 z " />
<path stroke="green" fill="green" d="M 3,22 L 4,21 L 6,21 L 7,22 L 7,24 L 6,25 L 4,25 L 3,24 L 3,22 z " />
<path stroke="grey" fill="grey" d="M 3,8 L 4,7 L 6,7 L 7,8 L 7,10 L 6,11 L 4,11 L 3,10 L 3,8 z " />
<path stroke="black" fill="black" d="M 30,17 L 30,22 L 32,22 L 32,17 L 30,17 z " />
</g>
</svg>
