<svg width="64" height="32">
  <g>
    <path stroke="rgb(0,0,0)" fill="rgb(0,0,0)" d="M 20,0 L 51,31 L 43,31 L 12,0 L 20,0 z " />
    <path stroke="rgb(192,192,192)" fill="rgb(192,192,192)" d="M 21,3 L 27,9 L 25,11 L 19,5 L 21,3 z " />
    <path stroke="rgb(192,192,192)" fill="rgb(192,192,192)" d="M 38,20 L 44,26 L 42,28 L 36,22 L 38,20 z"  />
    <path stroke="rgb(0,0,0)" fill="rgb(0,0,0)" d="M 43,0 L 51,0 L 20,31 L 12,31 L 43,0 z" />
    <path stroke="rgb(192,192,192)" fill="rgb(192,192,192)" d="M 42,3 L 44,5 L 38,11 L 36,9 L 42,3 z" />
    <path stroke="rgb(192,192,192)" fill="rgb(192,192,192)" d="M 25,20 L 27,22 L 21,28 L 19,26 L 25,20 z" />
    <path stroke="rgb(255,255,0)" fill="rgb(255,255,0)" d="M 29,16 L 29,15 L 31,13 L 32,13 L 34,15 L 34,16 L 32,18 L 31,18 L 29,16 z" />
 </g>
</svg>
