<svg width="32" height="32">
  <g>
  <!-- Track -->
    <path stroke="rgb(0,0,0)" fill="rgb(0,0,0)" d="M 0,12 L 31,12 L 31,19 L 0,19 z " />
  <!-- Ausleuchtung grau -->
    <path stroke="rgb(192,192,192)" fill="rgb(192,192,192)" d="M 8,14 L 23,14 L 23,17 L 8,17 z " />
  <!-- signal -->
    <path stroke="rgb(0,0,0)" fill="rgb(0,0,0)" d="M 1,5 L 4,2 L 22,2 L 25,5 L 28,5 L 28,2 L 30,2 L 30,9 L 28,9 L 28,6 L 25,6 L 22,9 L 4,9 L 1,6 z " />
  <!-- Gruene Lampe -->
    <path stroke="rgb(0,90,0)" fill="rgb(0,90,0)" d="M 5,4 L 7,4 L 8,5 L 8,6 L 7,7 L 5,7 L 4,6 L 4,5 z " />
  <!-- Rote Lampe -->
    <path stroke="rgb(90,0,0)" fill="rgb(90,0,0)" d="M 12,4 L 14,4 L 15,5 L 15,6 L 14,7 L 12,7 L 11,6 L 11,5 z " />
  <!-- Gelbe Lampe -->  
    <path stroke="rgb(255,255,0)" fill="rgb(255,255,0)" d="M 19,4 L 21,4 L 22,5 L 22,6 L 21,7 L 19,7 L 18,6 L 18,5 z " />    
  </g>
</svg>
