/* XPM */
static char * rocrail_xpm[] = {
"32 32 17 1",
" 	c None",
".	c #000000",
"+	c #000080",
"@	c #008000",
"#	c #008080",
"$	c #800000",
"%	c #800080",
"&	c #808000",
"*	c #808080",
"=	c #CCCCCC",
"-	c #0000FF",
";	c #00FF00",
">	c #00FFFF",
",	c #FF0000",
"'	c #FF00FF",
")	c #FFFF00",
"!	c #FFFFFF",
"                                ",
"                                ",
"    ..**.*                      ",
" ...**===********..             ",
"****=**==**==********           ",
"**=.===.****.*===**.**.         ",
".**..*****..*****=*****.        ",
"   .****    ....***...***.      ",
"                      ....      ",
"                        ...     ",
"       ......           .=.     ",
"     ............. ...  .=.     ",
"     .========..=. .=.  .=.     ",
"  .......==.................... ",
"  .**..=.==. ..====*===*===.=.. ",
"  .....=.==....====*===*===.=.  ",
"  .==..=.=====.====*===*===.=.  ",
" ..==..=.==..=.===*******==.=.  ",
" ..==..=.=====..............=.  ",
"  .===.......................   ",
". .....=....===...===...==.... .",
"...===...,,,.=.,,,.=.,,,........",
". .===.=.,...................  .",
"   ......,,,...,,,...,,,. ...   ",
"         ...   ...   ...        ",
"................................",
"..=..=..=..=..=..=..=..=..=..=..",
"********************************",
"********************************",
"                                ",
"                                ",
"                                "};
