<?xml version="1.0" encoding="utf-8"?>
<svg width="32" height="32">
  <g>
    <!-- Track -->
    <path stroke="rgb(0,0,0)" fill="rgb(0,0,0)" d="M 0,12 L 31,12 L 31,19 L 0,19 z " />
    <!--gray -->
    <path stroke="rgb(192,192,192)" fill="rgb(192,192,192)" d="M 8,14 L 23,14 L 23,17 L 8,17 z " />
    <!-- signal -->
    <path stroke="rgb(0,0,0)" fill="rgb(0,0,0)" d="M 11,2 L 26,2 L 26,5 L 28,5 L 28,2 L 30,2 L 30,9 L 28,9 L 28,6 L 26,6 L 26,9 L 11,9 z " />
    <!--Top Green-->
    <path stroke="rgb(0,0,0)" fill="rgb(255,255,0)" d="M 12,2 L 13,2 L 14,3 L 14,4 L 13,5 L 12,5 L 11,4 L 11,3 z "></path>
    <!--Top Pivot-->
    <path stroke="rgb(0,0,0)" fill="rgb(90,90,90)" d="M 16,2 L 17,2 L 18,3 L 18,4 L 17,5 L 16,5 L 15,4 L 15,3 z "></path>
    <!--Bottom Green-->
    <path stroke="rgb(0,0,0)" fill="rgb(255,255,0)" d="M 20,2 L 21,2 L 22,3 L 22,4 L 21,5 L 20,5 L 19,4 L 19,3 z "></path>
    <!--Bottom Pivot-->
    <path stroke="rgb(0,0,0)" fill="rgb(90,90,90)" d="M 24,2 L 25,2 L 26,3 L 26,4 L 25,5 L 24,5 L 23,4 L 23,3 z "></path>
    <!--Top Lunar-->
    <path stroke="rgb(0,0,0)" fill="rgb(90,90,90)" d="M 12,6 L 13,6 L 14,7 L 14,8 L 13,9 L 12,9 L 11,8 L 11,7 z "></path>
    <!--Top Red-->
    <path stroke="rgb(0,0,0)" fill="rgb(255,255,0)" d="M 16,6 L 17,6 L 18,7 L 18,8 L 17,9 L 16,9 L 15,8 L 15,7 z "></path>
    <!--Bottom Lunar-->
    <path stroke="rgb(0,0,0)" fill="rgb(90,90,90)" d="M 20,6 L 21,6 L 22,7 L 22,8 L 21,9 L 20,9 L 19,8 L 19,7 z "></path>
    <!--Bottom Red-->
    <path stroke="rgb(0,0,0)" fill="rgb(255,255,0)" d="M 24,6 L 25,6 L 26,7 L 26,8 L 25,9 L 24,9 L 23,8 L 23,7 z "></path>
  </g>
</svg>