<?xml version="1.0" encoding="utf-8"?>
<svg width="32" height="32">
  <g>
    <!-- Track -->
    <path stroke="rgb(0,0,0)" fill="rgb(0,0,0)" d="M 0,12 L 31,12 L 31,19 L 0,19 z " />
    <!--red-->
    <path stroke="rgb(255,0,0)" fill="rgb(255,0,0)" d="M 8,14 L 23,14 L 23,17 L 8,17 z " />
    <!-- signal -->
    <path stroke="rgb(0,0,0)" fill="rgb(0,0,0)" d="M 1,5 L 2,4 L 9,4 L 10,5 L 28,5 L 28,2 L 30,2 L 30,9 L 28,9 L 28,6 L 10,6 L 9,7 L 2,7 L 1,6 z " />
    <!-- Top Head-->
    <path stroke="rgb(90,90,90)" fill="rgb(90,90,90)" d="M 2,5 L 2,6 L 3,6 L 3,5 z"></path>
    <path stroke="rgb(255,255,0)" fill="rgb(255,255,0)" d="M 5,5 L 5,6 L 6,6 L 6,5 z "></path>
    <path stroke="rgb(90,90,90)" fill="rgb(0,255,0)" d="M 8,5 L 8,6 L 9,6 L 9,5 z "></path>
  </g>
</svg>