/* XPM */
static const char * on_xpm[] = {
"16 16 21 1",
" 	c None",
".	c #49FF49",
"+	c #47FF47",
"@	c #45FF45",
"#	c #43FF43",
"$	c #41FF41",
"%	c #3FFF3F",
"&	c #3DFF3D",
"*	c #3BFF3B",
"=	c #39FF39",
"-	c #36FF36",
";	c #34FF34",
">	c #32FF32",
",	c #C8FFC8",
"'	c #35FF35",
")	c #37FF37",
"!	c #46FF46",
"~	c #4BFF4B",
"{	c #4DFF4D",
"]	c #4FFF4F",
"^	c #51FF51",
"  .+@#$%&*=-;>  ",
" >,,,,,,,,,,,,> ",
">,,,,,,,,,,,,,,>",
";,,,,,,,,,,,,,,'",
"),,,,,,,,,,,,,,)",
"=,,,,,,,,,,,,,,=",
"*,,,,,,,,,,,,,,*",
"&,,,,,,,,,,,,,,&",
"!,,,,,,,,,,,,,,%",
".,,,,,,,,,,,,,,$",
"~,,,,,,,,,,,,,,#",
"{,,,,,,,,,,,,,,@",
"],,,,,,,,,,,,,,+",
"^,,,,,,,,,,,,,,.",
" >,,,,,,,,,,,,> ",
"  >')=*&%$#@+.  "};
