/* XPM */
static const char * off_xpm[] = {
"16 16 21 1",
" 	c None",
".	c #FF4949",
"+	c #FF4747",
"@	c #FF4444",
"#	c #FF4242",
"$	c #FF4040",
"%	c #FF3E3E",
"&	c #FF3C3C",
"*	c #FF3A3A",
"=	c #FF3838",
"-	c #FF3636",
";	c #FF3434",
">	c #FF3232",
",	c #FFC8C8",
"'	c #FF3D3D",
")	c #FF3F3F",
"!	c #FF4141",
"~	c #FF4343",
"{	c #FF4545",
"]	c #FF4646",
"^	c #FF4848",
"  .+@#$%&*=-;>  ",
" >,,,,,,,,,,,,> ",
">,,,,,,,,,,,,,,>",
";,,,,,,,,,,,,,,;",
"-,,,,,,,,,,,,,,-",
"=,,,,,,,,,,,,,,=",
"*,,,,,,,,,,,,,,*",
"&,,,,,,,,,,,,,,'",
"%,,,,,,,,,,,,,,)",
"$,,,,,,,,,,,,,,!",
"#,,,,,,,,,,,,,,~",
"@,,,,,,,,,,,,,,{",
"+,,,,,,,,,,,,,,+",
".,,,,,,,,,,,,,,.",
" >,,,,,,,,,,,,> ",
"  >;-=*&%$#@]^  "};
