/* XPM */
static const char * rocrail_32_xpm[] = {
"32 32 599 2",
"  	c None",
". 	c #F4F6FC",
"+ 	c #EDF1FA",
"@ 	c #EBEFFA",
"# 	c #EBEFF9",
"$ 	c #EAEEF9",
"% 	c #E9EDF9",
"& 	c #EFF2FA",
"* 	c #E3E8F7",
"= 	c #DEE4F5",
"- 	c #DEE4F6",
"; 	c #E0E6F6",
"> 	c #E0E6F5",
", 	c #ECF0F9",
"' 	c #DDE4F4",
") 	c #D9E1F3",
"! 	c #DAE1F4",
"~ 	c #DBE3F5",
"{ 	c #DDE4F6",
"] 	c #DCE3F5",
"^ 	c #D9E1F4",
"/ 	c #D9E0F4",
"( 	c #D3D8E7",
"_ 	c #DEE4F4",
": 	c #D2DBF1",
"< 	c #D3DCF1",
"[ 	c #D4DCF1",
"} 	c #D5DDF2",
"| 	c #C8D1E9",
"1 	c #B7C2DE",
"2 	c #B6C1DD",
"3 	c #B8C3DF",
"4 	c #C9D2EA",
"5 	c #DAE2F6",
"6 	c #D3DBF1",
"7 	c #D4DDF3",
"8 	c #CED4E4",
"9 	c #D5DDF1",
"0 	c #CED7EF",
"a 	c #CFD8EF",
"b 	c #D9E1F6",
"c 	c #7B8CB6",
"d 	c #183173",
"e 	c #374D88",
"f 	c #314884",
"g 	c #253D7C",
"h 	c #8292BB",
"i 	c #D8E0F5",
"j 	c #D6DEF4",
"k 	c #D3DCF2",
"l 	c #D5DDF3",
"m 	c #D0D9F1",
"n 	c #C9D1E2",
"o 	c #CFD8EE",
"p 	c #C7D1EC",
"q 	c #C8D2EC",
"r 	c #D1DAF2",
"s 	c #7384B2",
"t 	c #4E6298",
"u 	c #D6DFF5",
"v 	c #D5DDF5",
"w 	c #97A5CB",
"x 	c #152E70",
"y 	c #B8C3E1",
"z 	c #CBD5EE",
"A 	c #BEC8E5",
"B 	c #A0ADD0",
"C 	c #AFBADA",
"D 	c #C7D1EB",
"E 	c #D1DAF3",
"F 	c #A4B1D3",
"G 	c #B5C0DF",
"H 	c #CFD8F1",
"I 	c #C7D0EB",
"J 	c #C7D2EC",
"K 	c #C8D3EE",
"L 	c #C2CADE",
"M 	c #CAD3EC",
"N 	c #C0CBE9",
"O 	c #C1CCE9",
"P 	c #C2CCE9",
"Q 	c #CAD4EF",
"R 	c #7182B1",
"S 	c #4C6096",
"T 	c #CAD4EE",
"U 	c #B9C5E2",
"V 	c #243D7B",
"W 	c #CDD8F0",
"X 	c #96A5CA",
"Y 	c #28407D",
"Z 	c #3E548D",
"` 	c #2D4481",
" .	c #5C70A2",
"..	c #7385B2",
"+.	c #2A407E",
"@.	c #3C528C",
"#.	c #2A427F",
"$.	c #6B7DAC",
"%.	c #CCD6F0",
"&.	c #C1CCE8",
"*.	c #C2CEEA",
"=.	c #BBC3D9",
"-.	c #C4CEE8",
";.	c #B9C5E4",
">.	c #BBC6E5",
",.	c #C3CEEA",
"'.	c #6E7FAF",
").	c #495E95",
"!.	c #BEC9E7",
"~.	c #B7C2E2",
"{.	c #6578A8",
"].	c #314885",
"^.	c #C2CDEA",
"/.	c #B6C2E2",
"(.	c #233A7A",
"_.	c #8E9EC5",
":.	c #CBD6F1",
"<.	c #BDC8E6",
"[.	c #283F7D",
"}.	c #8898C2",
"|.	c #9DABD0",
"1.	c #1C3475",
"2.	c #AEBCDC",
"3.	c #B4C0E0",
"4.	c #8A9AC3",
"5.	c #BAC6E5",
"6.	c #BAC7E7",
"7.	c #B4BDD4",
"8.	c #BEC9E4",
"9.	c #B2BFE0",
"0.	c #B3C0E0",
"a.	c #BBC7E6",
"b.	c #7283B2",
"c.	c #213979",
"d.	c #364D88",
"e.	c #223B7A",
"f.	c #3A508A",
"g.	c #B1BDDF",
"h.	c #B8C4E4",
"i.	c #97A6CC",
"j.	c #BDC8E7",
"k.	c #B0BDDE",
"l.	c #BFCAE9",
"m.	c #5F73A5",
"n.	c #5A6EA1",
"o.	c #6174A5",
"p.	c #586BA0",
"q.	c #B2BEE0",
"r.	c #B3BFE0",
"s.	c #B4C0E3",
"t.	c #ACB5CF",
"u.	c #B7C3E1",
"v.	c #AAB8DB",
"w.	c #ABB9DC",
"x.	c #B3BFE1",
"y.	c #6779AA",
"z.	c #435991",
"A.	c #ACB9DC",
"B.	c #7E8FBB",
"C.	c #1F3877",
"D.	c #95A5CC",
"E.	c #B5C1E3",
"F.	c #8A9AC4",
"G.	c #29407E",
"H.	c #B1BEE0",
"I.	c #AAB7DB",
"J.	c #B3C0E1",
"K.	c #6477A9",
"L.	c #52669C",
"M.	c #54699E",
"N.	c #ADBADD",
"O.	c #ABB8DB",
"P.	c #ABB8DC",
"Q.	c #ACBADE",
"R.	c #A4AFCA",
"S.	c #B0BCDC",
"T.	c #A1B0D6",
"U.	c #A3B1D6",
"V.	c #6275A8",
"W.	c #455B93",
"X.	c #ACB9DD",
"Y.	c #B0BDDF",
"Z.	c #687AAB",
"`.	c #1D3676",
" +	c #9BAAD1",
".+	c #9CABD2",
"++	c #1B3475",
"@+	c #9DACD2",
"#+	c #B2BEE1",
"$+	c #3B528C",
"%+	c #7487B5",
"&+	c #AFBCDF",
"*+	c #A8B6DA",
"=+	c #ACBADD",
"-+	c #9AA9D0",
";+	c #A4B2D7",
">+	c #A4B2D9",
",+	c #9BA6C3",
"'+	c #ADB8D9",
")+	c #9DABD2",
"!+	c #9CAAD1",
"~+	c #5B6FA3",
"{+	c #3D538D",
"]+	c #A2B0D6",
"^+	c #9CABD1",
"/+	c #4D6299",
"(+	c #29417F",
"_+	c #52679C",
":+	c #6A7DAE",
"<+	c #4C6298",
"[+	c #28407E",
"}+	c #96A6CE",
"|+	c #2E4582",
"1+	c #3F558E",
"2+	c #6577A9",
"3+	c #445992",
"4+	c #4F649A",
"5+	c #A5B3D8",
"6+	c #9EAED5",
"7+	c #97A3C0",
"8+	c #6E83BA",
"9+	c #889AC7",
"0+	c #98A8CF",
"a+	c #93A3CC",
"b+	c #92A2CC",
"c+	c #95A5CD",
"d+	c #7B8DBA",
"e+	c #7183B3",
"f+	c #95A4CD",
"g+	c #92A2CB",
"h+	c #5F72A6",
"i+	c #798BB9",
"j+	c #6679AB",
"k+	c #485D95",
"l+	c #54689E",
"m+	c #8C9CC7",
"n+	c #5D71A5",
"o+	c #4C6198",
"p+	c #5B70A4",
"q+	c #899AC5",
"r+	c #92A3CC",
"s+	c #91A2CB",
"t+	c #97A6CE",
"u+	c #8FA1CE",
"v+	c #4C5E8D",
"w+	c #5068A9",
"x+	c #34519C",
"y+	c #6277B2",
"z+	c #8696C3",
"A+	c #8E9DC7",
"B+	c #8B9BC6",
"C+	c #8C9CC8",
"D+	c #8F9FCA",
"E+	c #8999C5",
"F+	c #8A9AC6",
"G+	c #93A2CC",
"H+	c #8D9DC8",
"I+	c #91A1CB",
"J+	c #94A4CD",
"K+	c #94A3CD",
"L+	c #94A4CE",
"M+	c #91A1CC",
"N+	c #8A9BC6",
"O+	c #8E9DC8",
"P+	c #8797C4",
"Q+	c #667BB4",
"R+	c #3B58A4",
"S+	c #273D78",
"T+	c #536BA9",
"U+	c #334F9A",
"V+	c #324D99",
"W+	c #3A559D",
"X+	c #546CAA",
"Y+	c #7184B8",
"Z+	c #8495C2",
"`+	c #8596C2",
" @	c #8494C2",
".@	c #8394C1",
"+@	c #8293C1",
"@@	c #8192C0",
"#@	c #8192C1",
"$@	c #8595C2",
"%@	c #8495C1",
"&@	c #7386B8",
"*@	c #566EAB",
"=@	c #3C579E",
"-@	c #314D98",
";@	c #3955A0",
">@	c #2B4079",
",@	c #5068A5",
"'@	c #314B94",
")@	c #344F97",
"!@	c #334D95",
"~@	c #2F4B94",
"{@	c #314C94",
"]@	c #375197",
"^@	c #4D64A2",
"/@	c #6075AD",
"(@	c #6B7EB2",
"_@	c #7283B5",
":@	c #7688B9",
"<@	c #7B8BBB",
"[@	c #7D8EBC",
"}@	c #7E8EBB",
"|@	c #7D8DBB",
"1@	c #7B8CBA",
"2@	c #7688B8",
"3@	c #7284B5",
"4@	c #6176AD",
"5@	c #4E65A3",
"6@	c #385198",
"7@	c #324C94",
"8@	c #304A94",
"9@	c #354F97",
"0@	c #36519B",
"a@	c #293E75",
"b@	c #4E65A2",
"c@	c #2E4890",
"d@	c #324C92",
"e@	c #324B92",
"f@	c #334C93",
"g@	c #324C93",
"h@	c #2F4991",
"i@	c #2C468F",
"j@	c #364F95",
"k@	c #3B5397",
"l@	c #3F5799",
"m@	c #425A9B",
"n@	c #465D9D",
"o@	c #485E9E",
"p@	c #485F9E",
"q@	c #405799",
"r@	c #365095",
"s@	c #304991",
"t@	c #344E97",
"u@	c #273A72",
"v@	c #4C629E",
"w@	c #2C458C",
"x@	c #30498E",
"y@	c #30488E",
"z@	c #2F498E",
"A@	c #2F488E",
"B@	c #2F488D",
"C@	c #2D478D",
"D@	c #2D468C",
"E@	c #2D468D",
"F@	c #2C468D",
"G@	c #2E488E",
"H@	c #2C468C",
"I@	c #314B92",
"J@	c #25386F",
"K@	c #4A5F9A",
"L@	c #294288",
"M@	c #2D468A",
"N@	c #2C458A",
"O@	c #2F488B",
"P@	c #334C8E",
"Q@	c #2A4388",
"R@	c #455C9A",
"S@	c #4C639E",
"T@	c #23366B",
"U@	c #485D96",
"V@	c #263F83",
"W@	c #2A4385",
"X@	c #2A4386",
"Y@	c #2B4385",
"Z@	c #2A4285",
"`@	c #294285",
" #	c #284183",
".#	c #274083",
"+#	c #284184",
"@#	c #1F397E",
"##	c #697CAE",
"$#	c #C6D0E9",
"%#	c #223C80",
"&#	c #8796C1",
"*#	c #213467",
"=#	c #455B92",
"-#	c #233C7E",
";#	c #274081",
">#	c #284081",
",#	c #274181",
"'#	c #263F80",
")#	c #1D377A",
"!#	c #1F397B",
"~#	c #263E7F",
"{#	c #20397C",
"]#	c #2C4484",
"^#	c #314987",
"/#	c #1F387B",
"(#	c #294181",
"_#	c #2C4483",
":#	c #324A88",
"<#	c #8192BC",
"[#	c #9AA8CC",
"}#	c #1D367A",
"|#	c #1F3264",
"1#	c #435990",
"2#	c #213A7C",
"3#	c #253E7E",
"4#	c #263E7E",
"5#	c #1F397A",
"6#	c #6375A7",
"7#	c #8899C0",
"8#	c #7688B4",
"9#	c #C1CBE6",
"0#	c #7183B0",
"a#	c #8E9DC3",
"b#	c #C0CBE6",
"c#	c #C3CDE7",
"d#	c #6174A6",
"e#	c #183275",
"f#	c #9EACCE",
"g#	c #7F8FBA",
"h#	c #99A8CB",
"i#	c #1A3477",
"j#	c #264082",
"k#	c #1D3062",
"l#	c #42568C",
"m#	c #1F3777",
"n#	c #233B79",
"o#	c #6A7CAA",
"p#	c #DFE6FA",
"q#	c #8998BF",
"r#	c #5E70A1",
"s#	c #445990",
"t#	c #55689C",
"u#	c #304682",
"v#	c #173071",
"w#	c #495D93",
"x#	c #D6DFF4",
"y#	c #253D7B",
"z#	c #56699C",
"A#	c #BFC9E4",
"B#	c #7E8DB7",
"C#	c #99A6CA",
"D#	c #183172",
"E#	c #233B7A",
"F#	c #243D7D",
"G#	c #1B2E5E",
"H#	c #40538A",
"I#	c #1D3474",
"J#	c #223877",
"K#	c #1A3172",
"L#	c #6D7DAB",
"M#	c #A7B3D3",
"N#	c #0E2669",
"O#	c #193071",
"P#	c #6576A6",
"Q#	c #929FC5",
"R#	c #94A2C6",
"S#	c #2C417E",
"T#	c #536599",
"U#	c #B9C4E0",
"V#	c #132A6D",
"W#	c #7D8CB6",
"X#	c #98A6C9",
"Y#	c #172E6F",
"Z#	c #22397B",
"`#	c #1A2C5D",
" $	c #3E5286",
".$	c #1B3170",
"+$	c #1F3573",
"@$	c #182F6E",
"#$	c #6C7CA9",
"$$	c #A3B0D1",
"%$	c #162E6D",
"&$	c #1C3371",
"*$	c #283E79",
"=$	c #BDC8E2",
"-$	c #A6B3D2",
";$	c #6879A6",
">$	c #596B9B",
",$	c #D4DCF3",
"'$	c #293F7A",
")$	c #516396",
"!$	c #112869",
"~$	c #7C8BB4",
"{$	c #98A4C8",
"]$	c #142B6B",
"^$	c #203776",
"/$	c #182A59",
"($	c #3C4F83",
"_$	c #182F6C",
":$	c #1C326F",
"<$	c #1C336F",
"[$	c #152C6A",
"}$	c #6A7BA7",
"|$	c #A3AFD0",
"1$	c #142A69",
"2$	c #122967",
"3$	c #5C6E9D",
"4$	c #C8D2EA",
"5$	c #00185A",
"6$	c #0B2363",
"7$	c #051D5E",
"8$	c #263C76",
"9$	c #4F6193",
"0$	c #B9C3DF",
"a$	c #0E2564",
"b$	c #7A89B2",
"c$	c #97A4C7",
"d$	c #112967",
"e$	c #1D3472",
"f$	c #162757",
"g$	c #3B4D81",
"h$	c #162C69",
"i$	c #1B306C",
"j$	c #1A306C",
"k$	c #132966",
"l$	c #6E7EA9",
"m$	c #ACB7D6",
"n$	c #112866",
"o$	c #132967",
"p$	c #415589",
"q$	c #D7DFF5",
"r$	c #6273A0",
"s$	c #4D5F90",
"t$	c #99A6C8",
"u$	c #E9F0FF",
"v$	c #253B74",
"w$	c #516394",
"x$	c #C3CDE6",
"y$	c #0B2160",
"z$	c #808FB6",
"A$	c #9EABCC",
"B$	c #0F2563",
"C$	c #1B316C",
"D$	c #1B326F",
"E$	c #152654",
"F$	c #384A7D",
"G$	c #132A66",
"H$	c #182E69",
"I$	c #182E6A",
"J$	c #132965",
"K$	c #4B5D8E",
"L$	c #707FAA",
"M$	c #122965",
"N$	c #192F6A",
"O$	c #0E2561",
"P$	c #61729F",
"Q$	c #B3BDDA",
"R$	c #AAB5D4",
"S$	c #596A98",
"T$	c #8996BC",
"U$	c #20356F",
"V$	c #394C81",
"W$	c #7E8CB4",
"X$	c #0E2562",
"Y$	c #556696",
"Z$	c #6878A4",
"`$	c #112764",
" %	c #192F6C",
".%	c #132451",
"+%	c #283B72",
"@%	c #162A66",
"#%	c #172C67",
"$%	c #182C67",
"%%	c #102561",
"&%	c #0B205E",
"*%	c #182D67",
"=%	c #192D68",
"-%	c #0E2360",
";%	c #112662",
">%	c #0D225F",
",%	c #0F2461",
"'%	c #081D5B",
")%	c #162B66",
"!%	c #132763",
"~%	c #091E5C",
"{%	c #0C215F",
"]%	c #172B67",
"^%	c #192E6C",
"/%	c #101E47",
"(%	c #112355",
"_%	c #162963",
":%	c #152A64",
"<%	c #152963",
"[%	c #152964",
"}%	c #152A63",
"|%	c #142863",
"1%	c #142963",
"2%	c #162A63",
"3%	c #162A65",
"4%	c #0A132E",
"5%	c #0D193D",
"6%	c #13265E",
"7%	c #142A66",
"8%	c #142964",
"9%	c #142864",
"0%	c #142966",
"a%	c #142862",
"b%	c #0C1738",
"c%	c #081129",
"d%	c #0C193C",
"e%	c #0D1C46",
"f%	c #0E1C45",
"g%	c #0C193E",
"h%	c #08112A",
"    . + @ # # # # # # # # # # # # # # # # # # # # # # # $ %     ",
"  & * = = = = = = = = = = = = = = = = = = = = = = = = = - ; >   ",
", ' ) ! ! ) ~ { { { ] ^ ^ ^ ^ ^ ^ ^ ^ ^ / ^ / / / / / / / / ! ( ",
"_ : < [ [ } | 1 2 3 4 5 6 < < < < < < < < < < < < < < < < < 7 8 ",
"9 0 a a a b c d e f g h i 0 0 : j 7 a a a a k l k a a a a a m n ",
"o p q q q r s t u v w x y z m A B C m D D E y F G H I J J p K L ",
"M N O P O Q R S T J U V F W X Y Z `  .T T ..+.@.#.$.%.&.&.&.*.=.",
"-.;.>.>.>.,.'.).!.~.{.].^./.(._.:.<.[.}.|.1.2.K 3.4.N 5.5.5.6.7.",
"8.9.0.0.0.a.b.c.d.e.f.g.h.i.c.j.k.l.m.n.o.p.N g./.a.q.r.r.r.s.t.",
"u.v.w.w.w.x.y.z.A.B.C.D.E.F.G.H.I.J.K.L.M.m.J.I.w.N.O.P.P.P.Q.R.",
"S.T.U.U.U.I.V.W.X.Y.Z.`. +.+++@+I.#+$+Z.%+f &+*+=+-+;+U.U.U.>+,+",
"'+)+ +!+!+U.~+{+]+^+U./+(+.+_+` :+<+[+}+ +|+1+2+3+4+5+ + + +6+7+",
"8+9+0+a+b+c+d+e+f+g+g+}+h+i+.+j+k+l+m+f+a+g+n+o+p+q+r+s+g+t+u+v+",
"w+x+y+z+A+B+C+D+E+E+E+F+G+H+E+I+J+K+m+E+E+B+b+L+M+F+N+O+P+Q+R+S+",
"T+U+V+W+X+Y+Z+`+ @.@+@+@@@@@@@@@@@@@@@#@+@+@.@Z+$@%@&@*@=@-@;@>@",
",@'@)@!@~@{@]@^@/@(@_@:@<@[@}@|@|@[@[@1@2@3@(@4@5@6@7@8@!@9@0@a@",
"b@c@d@e@d@f@g@h@i@h@j@k@l@m@n@o@p@n@m@q@k@r@s@i@h@g@f@d@e@d@t@u@",
"v@w@x@y@x@x@x@y@z@A@B@C@C@D@E@E@F@E@D@E@E@G@D@H@x@x@z@x@x@x@I@J@",
"K@L@M@M@M@M@M@M@M@M@M@M@M@M@M@M@M@M@N@O@P@Q@R@S@Q@M@M@M@M@M@G@T@",
"U@V@W@W@W@W@X@Y@Z@`@Y@`@`@Z@ #.#+#W@@###$#%#&#F @#X@W@X@X@W@N@*#",
"=#-#;#>#>#,#>#;#'#;#)#!#~#{#]#^#'#/#(#_#:#)#<#[#}#,#>#,#>#>#`@|#",
"1#2#3#3#4#3#3#5#6#7#8#9#0#a#b#c#9#d#e#/+f#e#g#h#i#3#3#3#3#3#j#k#",
"l#m#n#n#n#n#n#1.o#p#q#r#s#t#u#v#w#x#y#z#A#x B#C#D#E#n#n#n#n#F#G#",
"H#I#J#J#J#J#J#K#L#M#N#I#O#I#P#Q#R#i S#T#U#V#W#X#Y#J#J#J#J#J#Z#`#",
" $.$+$+$+$+$+$@$#$$$%$&$*$=$-$;$>$,$'$)$U#!$~${$]$+$+$+$+$+$^$/$",
"($_$:$<$<$<$<$[$}$|$1$2$3$4$5$6$7$7 8$9$0$a$b$c$d$<$<$<$<$:$e$f$",
"g$h$i$i$i$j$i$k$l$m$n$o$p$q$r$s$t$u$v$w$x$y$z$A$B$i$C$i$j$i$D$E$",
"F$G$H$H$H$H$I$J$K$L$M$N$O$P$Q$R$S$T$U$V$W$X$Y$Z$`$H$H$H$I$H$ %.%",
"+%@%#%#%#%$%#%$%%%&%*%#%=%-%;%>%,%'%)%!%~%=%,%{%*%#%#%#%$%]%^%/%",
"(%_%:%<%<%_%<%<%[%<%_%}%}%<%|%1%[%2%<%<%<%}%<%<%<%}%}%_%<%[%3%4%",
"  5%6%7%8%8%8%8%8%8%8%9%8%8%8%8%8%8%8%8%8%8%8%8%8%8%8%8%0%a%b%  ",
"    c%d%e%f%f%f%f%f%f%f%f%f%f%f%f%f%f%f%f%f%f%f%f%f%f%f%g%h%    "};
