/* XPM */
static const char * rocrail_forwards_xpm[] = {
"64 32 6 1",
" 	c None",
".	c None",
"+	c #000000",
"@	c #808080",
"#	c #CCCCCC",
"$	c #FF0000",
"................................................................",
"................................................................",
"....................++@@+@......................................",
".................+++@@###@@@@@@@@++.............................",
"................@@@@#@@##@@##@@@@@@@@...........................",
"................@@#+###+@@@@+@###@@+@@+.........................",
"................+@@++@@@@@++@@@@@#@@@@@+........................",
"...................+@@@@....++++@@@+++@@@+......................",
"......................................++++......................",
"........................................+++.....................",
".......................++++++...........+#+.....................",
".....................+++++++++++++.+++..+#+.....................",
".....................+########++#+.+#+..+#+........++...........",
"..................+++++++##++++++++++++++++++++....++++.........",
"..................+@@++#+##+.++####@###@###+#++....++++++.......",
"..................+++++#+##++++####@###@###+#+.....++++++++.....",
"..................+##++#+#####+####@###@###+#+.....++++++++++...",
".................++##++#+##++#+###@@@@@@@##+#+.....+++++++++++..",
".................++##++#+#####++++++++++++++#+.....++++++++++...",
"..................+###+++++++++++++++++++++++......++++++++.....",
"................+.+++++#++++###+++###+++##++++.+...++++++.......",
"................+++###+++$$$+#+$$$+#+$$$++++++++...++++.........",
"................+.+###+#+$+++++++++++++++++++..+...++...........",
"...................++++++$$$+++$$$+++$$$+.+++...................",
".........................+++...+++...+++........................",
"................++++++++++++++++++++++++++++++++................",
"................++#++#++#++#++#++#++#++#++#++#++................",
"................@@@@@@@@@@@@@@@@@@@@@@@@@@@@@@@@................",
"................@@@@@@@@@@@@@@@@@@@@@@@@@@@@@@@@................",
"................................................................",
"................................................................",
"................................................................"};
